<svg id="dribble" xmlns="http://www.w3.org/2000/svg" viewBox="0 0 22 22"><path d="M153.42,1021.59a11,11,0,1,0,11,11A11,11,0,0,0,153.42,1021.59Zm9.15,10.66a26.91,26.91,0,0,0-6.93.14c-.08-.25-.16-.48-.23-.67a5.57,5.57,0,0,0-.23-.52,20.82,20.82,0,0,0,5.36-4.38A9.14,9.14,0,0,1,162.57,1032.25Zm-3.34-6.75a42.89,42.89,0,0,1-5,3.94c-1.25-2.06-3-4.49-3.76-5.52a9.13,9.13,0,0,1,8.78,1.58Zm-10.24-.93c.69,1,2.36,3.49,3.61,5.47a50.31,50.31,0,0,1-8.07.35A9.11,9.11,0,0,1,149,1024.57Zm-4.74,8c0-.19,0-.38,0-.56a53,53,0,0,0,9.33-.34c.16.29.3.54.39.72s.12.29.18.46c-2.27,1.11-6,4.26-7.66,5.74A9.1,9.1,0,0,1,144.25,1032.59Zm3.37,7.1a56.68,56.68,0,0,1,7-5.23c.62,2.32,1.3,5.67,1.54,6.86a9.22,9.22,0,0,1-8.59-1.63Zm10.23.92c-.23-1-1-4.15-1.72-6.63a35.93,35.93,0,0,1,6.33,0A9.15,9.15,0,0,1,157.85,1040.61Z" transform="translate(-142.42 -1021.59)"/></svg>