<svg id="github" xmlns="http://www.w3.org/2000/svg" viewBox="0 0 22.27 21.72"><defs><style>.cls-1{fill-rule:evenodd;}</style></defs><path class="cls-1" d="M215.88,1021.59a11.13,11.13,0,0,0-3.52,21.7c.56.1.76-.24.76-.54s0-1,0-1.89c-3.09.67-3.75-1.49-3.75-1.49a2.91,2.91,0,0,0-1.23-1.63c-1-.69.07-.68.07-.68a2.35,2.35,0,0,1,1.71,1.15,2.36,2.36,0,0,0,3.24.92,2.37,2.37,0,0,1,.71-1.49c-2.48-.28-5.08-1.23-5.08-5.5a4.32,4.32,0,0,1,1.15-3,4,4,0,0,1,.11-2.94s.93-.3,3.06,1.14a10.43,10.43,0,0,1,5.58,0c2.12-1.44,3.06-1.14,3.06-1.14a4,4,0,0,1,.11,2.94,4.31,4.31,0,0,1,1.14,3c0,4.28-2.6,5.22-5.08,5.5a2.64,2.64,0,0,1,.75,2.06c0,1.49,0,2.69,0,3s.2.65.77.54a11.14,11.14,0,0,0-3.53-21.7Z" transform="translate(-204.74 -1021.59)"/></svg>