<svg id="Capa_2" data-name="Capa 2" xmlns="http://www.w3.org/2000/svg" xmlns:xlink="http://www.w3.org/1999/xlink" viewBox="0 0 163.38 158.35"><defs><style>.cls-1{fill:none;}.cls-2{isolation:isolate;}.cls-3{clip-path:url(#clip-path);}.cls-4{fill:#28bdcc;}.cls-5{clip-path:url(#clip-path-2);}.cls-6{fill:#2ae2c8;}.cls-7{clip-path:url(#clip-path-3);}.cls-8{clip-path:url(#clip-path-4);}.cls-9{clip-path:url(#clip-path-5);}.cls-10{clip-path:url(#clip-path-6);}.cls-11{clip-path:url(#clip-path-7);}.cls-12{clip-path:url(#clip-path-8);}.cls-13{fill:#28bccc;}.cls-14{clip-path:url(#clip-path-9);}.cls-15{clip-path:url(#clip-path-10);}.cls-16{clip-path:url(#clip-path-11);}.cls-17{clip-path:url(#clip-path-12);}.cls-18{clip-path:url(#clip-path-13);}.cls-19{clip-path:url(#clip-path-14);}.cls-20{clip-path:url(#clip-path-15);}.cls-21{clip-path:url(#clip-path-16);}.cls-22{clip-path:url(#clip-path-17);}.cls-23{clip-path:url(#clip-path-18);}.cls-24{clip-path:url(#clip-path-19);}.cls-25{clip-path:url(#clip-path-20);}.cls-26{clip-path:url(#clip-path-21);}.cls-27{clip-path:url(#clip-path-22);}.cls-28{clip-path:url(#clip-path-23);}.cls-29{clip-path:url(#clip-path-24);}.cls-30{clip-path:url(#clip-path-25);}.cls-31{clip-path:url(#clip-path-26);}.cls-32{clip-path:url(#clip-path-27);}.cls-33{clip-path:url(#clip-path-28);}.cls-34{clip-path:url(#clip-path-29);}.cls-35{clip-path:url(#clip-path-30);}.cls-36{clip-path:url(#clip-path-31);}.cls-37{clip-path:url(#clip-path-32);}.cls-38{clip-path:url(#clip-path-33);}.cls-39{clip-path:url(#clip-path-34);}.cls-40{clip-path:url(#clip-path-35);}.cls-41{clip-path:url(#clip-path-36);}.cls-42{clip-path:url(#clip-path-37);}.cls-43{clip-path:url(#clip-path-38);}</style><clipPath id="clip-path" transform="translate(-879.46 -462.84)"><path class="cls-1" d="M1001.25,482.56l2.9,2.23a4.56,4.56,0,0,1,1.76,3.07,4.92,4.92,0,0,1-4.07,5.44l-2.91-2.22a4.92,4.92,0,0,0,4.08-5.44A4.65,4.65,0,0,0,1001.25,482.56Z"/></clipPath><clipPath id="clip-path-2" transform="translate(-879.46 -462.84)"><path class="cls-1" d="M988,508.62l-2.91-2.23a9.83,9.83,0,0,0,7.4,1.92l.19,0a10.57,10.57,0,0,0,8.78-11.71,9.87,9.87,0,0,0-2.54-5.49l2.91,2.22a9.93,9.93,0,0,1,2.53,5.49,10.57,10.57,0,0,1-8.78,11.71l-.19,0A9.85,9.85,0,0,1,988,508.62Z"/></clipPath><clipPath id="clip-path-3" transform="translate(-879.46 -462.84)"><path class="cls-1" d="M951.34,566.59l-2.91-2.22a2.14,2.14,0,0,0,1.59.4,2.07,2.07,0,0,0,.62-.21A45.32,45.32,0,0,0,972,540.25c1.95-5.46,5.9-13.59,13.28-19.32l2.9,2.22c-7.38,5.74-11.33,13.86-13.28,19.32a45.31,45.31,0,0,1-21.31,24.32,2.19,2.19,0,0,1-.63.2A2.12,2.12,0,0,1,951.34,566.59Z"/></clipPath><clipPath id="clip-path-4" transform="translate(-879.46 -462.84)"><path class="cls-1" d="M1023.72,519.17l2.9,2.22-.37-.27c-4.4-3.21-10.16-4.53-15.52-4.75l-2.9-2.22c5.36.22,11.11,1.54,15.52,4.74Z"/></clipPath><clipPath id="clip-path-5" transform="translate(-879.46 -462.84)"><path class="cls-1" d="M1007.83,514.15l2.9,2.22a45.23,45.23,0,0,1,4.09,13.66,77.9,77.9,0,0,1-.67,17.25l-2.9-2.23a77.84,77.84,0,0,0,.67-17.25A45.16,45.16,0,0,0,1007.83,514.15Z"/></clipPath><clipPath id="clip-path-6" transform="translate(-879.46 -462.84)"><path class="cls-1" d="M1026.33,515.75l2.9,2.23a19.53,19.53,0,0,1,7.72,13.5c.86,6.68-1.76,13-7.56,18.28a2.16,2.16,0,0,1-1.16.55,2.08,2.08,0,0,1-1.54-.4l-2.9-2.23a2,2,0,0,0,1.54.4,2.11,2.11,0,0,0,1.16-.54c5.8-5.27,8.42-11.6,7.56-18.28A19.57,19.57,0,0,0,1026.33,515.75Z"/></clipPath><clipPath id="clip-path-7" transform="translate(-879.46 -462.84)"><path class="cls-1" d="M1030.68,553.5l2.9,2.22a44,44,0,0,1,9.26,9.65l-2.9-2.22A44,44,0,0,0,1030.68,553.5Z"/></clipPath><clipPath id="clip-path-8" transform="translate(-879.46 -462.84)"><path class="cls-1" d="M1039.94,563.15l2.9,2.22c-7.06,27.73-30.1,50.19-59.78,54.92l-1.33.2a71.82,71.82,0,0,1-12.79.64L966,618.9a69.89,69.89,0,0,0,12.78-.64l1.33-.19C1009.84,613.34,1032.88,590.88,1039.94,563.15Z"/></clipPath><clipPath id="clip-path-9" transform="translate(-879.46 -462.84)"><path class="cls-1" d="M922.52,474.89l2.9,2.22a1.72,1.72,0,0,0-1.31-.22,3.35,3.35,0,0,0-1.52.65,8.51,8.51,0,0,0-1.4,1.29l-2.91-2.22a8.15,8.15,0,0,1,1.41-1.29,3.35,3.35,0,0,1,1.52-.65A1.72,1.72,0,0,1,922.52,474.89Z"/></clipPath><clipPath id="clip-path-10" transform="translate(-879.46 -462.84)"><path class="cls-1" d="M925.68,471.4l2.91,2.22a3.9,3.9,0,0,1,1.2,1.62,8.68,8.68,0,0,1,.53,2.15l-2.91-2.23a7.81,7.81,0,0,0-.53-2.14A3.68,3.68,0,0,0,925.68,471.4Z"/></clipPath><clipPath id="clip-path-11" transform="translate(-879.46 -462.84)"><path class="cls-1" d="M939.29,472.42l2.9,2.22a2.14,2.14,0,0,0-1.62-.27,2.41,2.41,0,0,0-1.52.7,2.88,2.88,0,0,0-.55,1.71,19.68,19.68,0,0,0,.14,3.15l-2.9-2.22a18.56,18.56,0,0,1-.14-3.15,2.94,2.94,0,0,1,.55-1.72,2.41,2.41,0,0,1,1.52-.69A2.14,2.14,0,0,1,939.29,472.42Z"/></clipPath><clipPath id="clip-path-12" transform="translate(-879.46 -462.84)"><path class="cls-1" d="M942,469.77,944.9,472a5.88,5.88,0,0,1,1.94,3,29.18,29.18,0,0,1,1,5.34L945,478.11a28.24,28.24,0,0,0-1-5.33A5.76,5.76,0,0,0,942,469.77Z"/></clipPath><clipPath id="clip-path-13" transform="translate(-879.46 -462.84)"><path class="cls-1" d="M940.79,491.36l-2.9-2.23a2.52,2.52,0,0,1-.76-1,8.32,8.32,0,0,1-.5-2.23l2.91,2.22a8.32,8.32,0,0,0,.5,2.23A2.55,2.55,0,0,0,940.79,491.36Z"/></clipPath><clipPath id="clip-path-14" transform="translate(-879.46 -462.84)"><path class="cls-1" d="M937.94,494l-2.9-2.22a5.16,5.16,0,0,0,.63.4,7,7,0,0,0,4.28.48c2.35-.34,3.94-1.23,4.77-2.7a9.19,9.19,0,0,0,.87-5.65l2.91,2.22a9.26,9.26,0,0,1-.87,5.65q-1.26,2.2-4.78,2.7a6.93,6.93,0,0,1-4.27-.48A3.82,3.82,0,0,1,937.94,494Z"/></clipPath><clipPath id="clip-path-15" transform="translate(-879.46 -462.84)"><path class="cls-1" d="M890.63,505.22l2.9,2.22a2.74,2.74,0,0,0-.46-.29,6.29,6.29,0,0,0-3.45-.24l-2.9-2.22a6.05,6.05,0,0,1,3.44.24A2.83,2.83,0,0,1,890.63,505.22Z"/></clipPath><clipPath id="clip-path-16" transform="translate(-879.46 -462.84)"><path class="cls-1" d="M893.87,502.54l2.9,2.22a6.12,6.12,0,0,1,1.66,2l-2.9-2.22A6.12,6.12,0,0,0,893.87,502.54Z"/></clipPath><clipPath id="clip-path-17" transform="translate(-879.46 -462.84)"><path class="cls-1" d="M895.53,504.5l2.9,2.22a14.42,14.42,0,0,1,1.49,5.32l-2.9-2.22A14.42,14.42,0,0,0,895.53,504.5Z"/></clipPath><clipPath id="clip-path-18" transform="translate(-879.46 -462.84)"><path class="cls-1" d="M898.32,521.68l2.9,2.23a16.42,16.42,0,0,1-.27,5.89,7.17,7.17,0,0,1-2.49,4,10.67,10.67,0,0,1-5.24,2l-2.9-2.23a10.53,10.53,0,0,0,5.23-2,7.16,7.16,0,0,0,2.5-4A16.62,16.62,0,0,0,898.32,521.68Z"/></clipPath><clipPath id="clip-path-19" transform="translate(-879.46 -462.84)"><path class="cls-1" d="M910.45,511.51l2.91,2.22a5.3,5.3,0,0,0-1.26,0,3.75,3.75,0,0,0-1.76.71,5.27,5.27,0,0,0-1.41,2l-2.9-2.23a5.09,5.09,0,0,1,1.41-2,3.62,3.62,0,0,1,1.75-.71A5.32,5.32,0,0,1,910.45,511.51Z"/></clipPath><clipPath id="clip-path-20" transform="translate(-879.46 -462.84)"><path class="cls-1" d="M911.58,511.69l2.9,2.23a5.8,5.8,0,0,0-1.12-.19l-2.91-2.22A6.69,6.69,0,0,1,911.58,511.69Z"/></clipPath><clipPath id="clip-path-21" transform="translate(-879.46 -462.84)"><path class="cls-1" d="M921.92,509.08l2.9,2.22a2.09,2.09,0,0,0-1.6-.27,2.38,2.38,0,0,0-1.51.7,2.84,2.84,0,0,0-.56,1.71,18.9,18.9,0,0,0,.15,3.16l-2.9-2.22a18.9,18.9,0,0,1-.15-3.16,2.81,2.81,0,0,1,.56-1.72,2.38,2.38,0,0,1,1.51-.69A2.1,2.1,0,0,1,921.92,509.08Z"/></clipPath><clipPath id="clip-path-22" transform="translate(-879.46 -462.84)"><path class="cls-1" d="M924.65,506.43l2.9,2.22a5.79,5.79,0,0,1,1.93,3,28.45,28.45,0,0,1,1,5.34l-2.9-2.23a28.49,28.49,0,0,0-1-5.33A5.81,5.81,0,0,0,924.65,506.43Z"/></clipPath><clipPath id="clip-path-23" transform="translate(-879.46 -462.84)"><path class="cls-1" d="M923.44,528l-2.91-2.22a2.56,2.56,0,0,1-.74-1,8,8,0,0,1-.5-2.23l2.9,2.22a8.23,8.23,0,0,0,.5,2.23A2.49,2.49,0,0,0,923.44,528Z"/></clipPath><clipPath id="clip-path-24" transform="translate(-879.46 -462.84)"><path class="cls-1" d="M920.6,530.64l-2.91-2.22a5.23,5.23,0,0,0,.63.41,7.07,7.07,0,0,0,4.28.47q3.52-.49,4.77-2.7a9.12,9.12,0,0,0,.87-5.65l2.91,2.22a9.29,9.29,0,0,1-.87,5.66c-.83,1.46-2.43,2.36-4.78,2.69a7.07,7.07,0,0,1-4.28-.47A3.7,3.7,0,0,1,920.6,530.64Z"/></clipPath><clipPath id="clip-path-25" transform="translate(-879.46 -462.84)"><path class="cls-1" d="M937.8,507l2.9,2.23-.11-.08a2.11,2.11,0,0,0-1.52-.3,2.23,2.23,0,0,0-1.57.93l-2.9-2.22a2.19,2.19,0,0,1,1.57-.93,2.11,2.11,0,0,1,1.52.3Z"/></clipPath><clipPath id="clip-path-26" transform="translate(-879.46 -462.84)"><path class="cls-1" d="M938.23,513.45l-2.9-2.23a3.17,3.17,0,0,1-.78-.83,3,3,0,0,1-.39-1.15,2.48,2.48,0,0,1,.44-1.73l2.9,2.22a2.61,2.61,0,0,0-.44,1.74,2.83,2.83,0,0,0,.4,1.14A3.13,3.13,0,0,0,938.23,513.45Z"/></clipPath><clipPath id="clip-path-27" transform="translate(-879.46 -462.84)"><path class="cls-1" d="M936.12,517l-2.9-2.22.58.42,2.91,2.22A6.27,6.27,0,0,1,936.12,517Z"/></clipPath><clipPath id="clip-path-28" transform="translate(-879.46 -462.84)"><path class="cls-1" d="M939.67,504.33l2.91,2.22.36.31a7.28,7.28,0,0,1,2.11,4.06l-2.9-2.23a7.41,7.41,0,0,0-2.11-4.05A3.57,3.57,0,0,0,939.67,504.33Z"/></clipPath><clipPath id="clip-path-29" transform="translate(-879.46 -462.84)"><path class="cls-1" d="M938.67,518.39l2.91,2.23c-.18-.14-.37-.27-.58-.41L938.1,518C938.3,518.12,938.5,518.26,938.67,518.39Z"/></clipPath><clipPath id="clip-path-30" transform="translate(-879.46 -462.84)"><path class="cls-1" d="M939.18,525.68l-2.9-2.22a2.31,2.31,0,0,1-.36-.34,7.82,7.82,0,0,1-1.43-3.13l2.9,2.22a7.82,7.82,0,0,0,1.43,3.13A3.75,3.75,0,0,0,939.18,525.68Z"/></clipPath><clipPath id="clip-path-31" transform="translate(-879.46 -462.84)"><path class="cls-1" d="M940.54,515l2.91,2.23c.42.32.82.66,1.21,1a7.58,7.58,0,0,1,1.43,1.82,6.49,6.49,0,0,1,.76,2.52,6.34,6.34,0,0,1-.44,3.38,5.17,5.17,0,0,1-2,2.27,8.08,8.08,0,0,1-3.26,1.13,5.86,5.86,0,0,1-4.58-1l-2.91-2.22a5.93,5.93,0,0,0,4.59,1,8.23,8.23,0,0,0,3.26-1.13,5.25,5.25,0,0,0,2-2.28,6.31,6.31,0,0,0,.44-3.37,6.6,6.6,0,0,0-.76-2.53,7.78,7.78,0,0,0-1.43-1.81C941.37,515.62,941,515.27,940.54,515Z"/></clipPath><clipPath id="clip-path-32" transform="translate(-879.46 -462.84)"><path class="cls-1" d="M952.61,504.87l2.9,2.22-.1-.07a2.07,2.07,0,0,0-1.52-.3,2.21,2.21,0,0,0-1.58.93l-2.9-2.22a2.19,2.19,0,0,1,1.58-.93,2,2,0,0,1,1.52.3Z"/></clipPath><clipPath id="clip-path-33" transform="translate(-879.46 -462.84)"><path class="cls-1" d="M953.05,511.36l-2.9-2.22a2.87,2.87,0,0,1-.78-.83,2.7,2.7,0,0,1-.38-1.15,2.52,2.52,0,0,1,.42-1.73l2.9,2.22a2.52,2.52,0,0,0-.42,1.73,2.79,2.79,0,0,0,.38,1.15A2.87,2.87,0,0,0,953.05,511.36Z"/></clipPath><clipPath id="clip-path-34" transform="translate(-879.46 -462.84)"><path class="cls-1" d="M950.91,514.86l-2.9-2.22c.2.15.4.29.62.43l2.9,2.23Z"/></clipPath><clipPath id="clip-path-35" transform="translate(-879.46 -462.84)"><path class="cls-1" d="M954.49,502.25l2.9,2.22.37.31a7.41,7.41,0,0,1,2.11,4.05l-2.9-2.22a7.38,7.38,0,0,0-2.11-4.05C954.74,502.45,954.61,502.34,954.49,502.25Z"/></clipPath><clipPath id="clip-path-36" transform="translate(-879.46 -462.84)"><path class="cls-1" d="M953.48,516.3l2.9,2.22c-.17-.13-.36-.26-.56-.39l-2.9-2.22C953.12,516,953.31,516.17,953.48,516.3Z"/></clipPath><clipPath id="clip-path-37" transform="translate(-879.46 -462.84)"><path class="cls-1" d="M954,523.6l-2.9-2.22a2.31,2.31,0,0,1-.36-.34,7.62,7.62,0,0,1-1.43-3.13l2.9,2.22a7.56,7.56,0,0,0,1.43,3.13A2.31,2.31,0,0,0,954,523.6Z"/></clipPath><clipPath id="clip-path-38" transform="translate(-879.46 -462.84)"><path class="cls-1" d="M955.36,512.87l2.9,2.22c.42.32.83.67,1.22,1a7.52,7.52,0,0,1,1.43,1.81,6.6,6.6,0,0,1,.76,2.53,6.4,6.4,0,0,1-.44,3.37,5.25,5.25,0,0,1-2,2.28,8.18,8.18,0,0,1-3.26,1.13,5.92,5.92,0,0,1-4.59-1l-2.9-2.23a5.92,5.92,0,0,0,4.59,1,8.13,8.13,0,0,0,3.25-1.13,5.21,5.21,0,0,0,2-2.28,6.32,6.32,0,0,0,.43-3.37,6.59,6.59,0,0,0-.75-2.53,7.78,7.78,0,0,0-1.43-1.81C956.18,513.54,955.78,513.19,955.36,512.87Z"/></clipPath></defs><g class="cls-2"><g class="cls-2"><g class="cls-3"><g class="cls-2"><path class="cls-4" d="M1001.25,482.56l2.9,2.23a4.56,4.56,0,0,1,1.76,3.07,4.92,4.92,0,0,1-4.07,5.44l-2.91-2.22a4.92,4.92,0,0,0,4.08-5.44,4.65,4.65,0,0,0-1.76-3.08" transform="translate(-879.46 -462.84)"/></g></g></g><g class="cls-2"><g class="cls-5"><g class="cls-2"><path class="cls-4" d="M998.93,491.08l2.91,2.22a9.93,9.93,0,0,1,2.53,5.49,10.57,10.57,0,0,1-8.78,11.71l-.19,0a9.85,9.85,0,0,1-7.39-1.91l-2.91-2.23a9.83,9.83,0,0,0,7.4,1.92l.19,0a10.57,10.57,0,0,0,8.78-11.71,9.87,9.87,0,0,0-2.54-5.49" transform="translate(-879.46 -462.84)"/></g></g></g><path class="cls-6" d="M997.83,481.67a4.57,4.57,0,0,1,5.18,4,4.92,4.92,0,0,1-4.08,5.44,9.87,9.87,0,0,1,2.54,5.49,10.57,10.57,0,0,1-8.78,11.71l-.19,0a9.83,9.83,0,0,1-11.18-8.54,10.58,10.58,0,0,1,8.78-11.71l.2,0a9.73,9.73,0,0,1,3.62.16,5.24,5.24,0,0,1-.27-1.07,4.92,4.92,0,0,1,4.08-5.43Z" transform="translate(-879.46 -462.84)"/></g><g class="cls-2"><g class="cls-2"><g class="cls-7"><g class="cls-2"><path class="cls-4" d="M985.24,520.93l2.9,2.22c-7.38,5.74-11.33,13.86-13.28,19.32a45.31,45.31,0,0,1-21.31,24.32,2.19,2.19,0,0,1-.63.2,2.12,2.12,0,0,1-1.58-.4l-2.91-2.22a2.14,2.14,0,0,0,1.59.4,2.07,2.07,0,0,0,.62-.21A45.32,45.32,0,0,0,972,540.25c1.95-5.46,5.9-13.59,13.28-19.32" transform="translate(-879.46 -462.84)"/></g></g></g><g class="cls-2"><g class="cls-8"><g class="cls-2"><path class="cls-4" d="M1023.72,519.17l2.9,2.22-.37-.27c-4.4-3.21-10.16-4.53-15.52-4.75l-2.9-2.22c5.36.22,11.11,1.54,15.52,4.74l.37.28" transform="translate(-879.46 -462.84)"/></g></g></g><g class="cls-2"><g class="cls-9"><g class="cls-2"><path class="cls-4" d="M1007.83,514.15l2.9,2.22a45.23,45.23,0,0,1,4.09,13.66,77.9,77.9,0,0,1-.67,17.25l-2.9-2.23a77.84,77.84,0,0,0,.67-17.25,45.16,45.16,0,0,0-4.09-13.65" transform="translate(-879.46 -462.84)"/></g></g></g><g class="cls-2"><g class="cls-10"><g class="cls-2"><path class="cls-4" d="M1026.33,515.75l2.9,2.23a19.53,19.53,0,0,1,7.72,13.5c.86,6.68-1.76,13-7.56,18.28a2.16,2.16,0,0,1-1.16.55,2.08,2.08,0,0,1-1.54-.4l-2.9-2.23a2,2,0,0,0,1.54.4,2.11,2.11,0,0,0,1.16-.54c5.8-5.27,8.42-11.6,7.56-18.28a19.57,19.57,0,0,0-7.72-13.51" transform="translate(-879.46 -462.84)"/></g></g></g><g class="cls-2"><g class="cls-11"><g class="cls-2"><path class="cls-4" d="M1030.68,553.5l2.9,2.22a44,44,0,0,1,9.26,9.65l-2.9-2.22a44,44,0,0,0-9.26-9.65" transform="translate(-879.46 -462.84)"/></g></g></g><g class="cls-2"><g class="cls-12"><g class="cls-2"><path class="cls-4" d="M1039.94,563.15l2.9,2.22c-7.06,27.73-30.1,50.19-59.78,54.92l-1.33.2a71.82,71.82,0,0,1-12.79.64L966,618.9a69.89,69.89,0,0,0,12.78-.64l1.33-.19c29.69-4.73,52.73-27.19,59.79-54.92" transform="translate(-879.46 -462.84)"/></g></g></g><path class="cls-6" d="M1000.08,510.29c7.6-1.07,18.29-.32,25.8,5.13a19.59,19.59,0,0,1,8.17,13.84c.86,6.68-1.76,13-7.56,18.28a2.11,2.11,0,0,1-1.16.54,2.05,2.05,0,0,1-1.83-.66,2.15,2.15,0,0,1,.21-3c4.77-4.33,6.84-9.2,6.16-14.49a15.61,15.61,0,0,0-6.52-11c-4.41-3.2-10.16-4.52-15.52-4.74a45.16,45.16,0,0,1,4.09,13.65,77.84,77.84,0,0,1-.67,17.25,44,44,0,0,1,28.69,18.1c-7.06,27.73-30.1,50.19-59.79,54.92l-1.33.19a69.89,69.89,0,0,1-12.78.64,44.47,44.47,0,0,1-8.71-21.37,47.48,47.48,0,0,1,33.08-51.06,17.75,17.75,0,0,0,.76-5.7c-.37-2.89-5.24-6.54-5.61-9.42-.23-1.83-.3-6.92-.32-10.42-7.38,5.73-11.33,13.86-13.28,19.32a45.32,45.32,0,0,1-21.32,24.31,2.07,2.07,0,0,1-.62.21,2,2,0,0,1-2.18-1.14,2.17,2.17,0,0,1,1-2.85A40.73,40.73,0,0,0,968,538.91c5.52-15.44,16.61-25.77,30.43-28.36Z" transform="translate(-879.46 -462.84)"/></g><g class="cls-2"><polygon class="cls-13" points="20.84 5.71 23.75 7.93 18.32 8.69 15.42 6.47 20.84 5.71"/><polygon class="cls-13" points="30.59 4.34 33.5 6.56 28.22 7.3 25.32 5.08 30.59 4.34"/><polygon class="cls-13" points="30.23 1 33.13 3.22 33.5 6.56 30.59 4.34 30.23 1"/><polygon class="cls-13" points="28.48 33.97 31.38 36.2 26.91 36.83 24 34.6 28.48 33.97"/><polygon class="cls-13" points="25.32 5.08 28.22 7.3 31.38 36.2 28.48 33.97 25.32 5.08"/><polygon class="cls-6" points="30.23 1 30.59 4.34 25.32 5.08 28.48 33.97 24 34.6 20.84 5.71 15.42 6.47 15.05 3.13 30.23 1"/></g><g class="cls-2"><polygon class="cls-13" points="37.32 0 40.22 2.22 41.49 13.84 38.59 11.62 37.32 0"/><g class="cls-2"><g class="cls-14"><g class="cls-2"><path class="cls-4" d="M922.52,474.89l2.9,2.22a1.72,1.72,0,0,0-1.31-.22,3.35,3.35,0,0,0-1.52.65,8.51,8.51,0,0,0-1.4,1.29l-2.91-2.22a8.15,8.15,0,0,1,1.41-1.29,3.35,3.35,0,0,1,1.52-.65,1.72,1.72,0,0,1,1.31.22" transform="translate(-879.46 -462.84)"/></g></g></g><g class="cls-2"><g class="cls-15"><g class="cls-2"><path class="cls-4" d="M925.68,471.4l2.91,2.22a3.9,3.9,0,0,1,1.2,1.62,8.68,8.68,0,0,1,.53,2.15l-2.91-2.23a7.81,7.81,0,0,0-.53-2.14,3.68,3.68,0,0,0-1.2-1.62" transform="translate(-879.46 -462.84)"/></g></g></g><polygon class="cls-13" points="38.83 13.77 41.73 15.99 43.75 34.46 40.85 32.24 38.83 13.77"/><polygon class="cls-13" points="40.85 32.24 43.75 34.46 39.51 35.05 36.61 32.83 40.85 32.24"/><polygon class="cls-13" points="49.99 30.95 52.9 33.17 48.66 33.77 45.75 31.55 49.99 30.95"/><polygon class="cls-13" points="47.95 12.32 50.86 14.55 52.9 33.17 49.99 30.95 47.95 12.32"/><path class="cls-6" d="M916.78,462.84l1.27,11.62a12.7,12.7,0,0,1,2.36-2.27,6.73,6.73,0,0,1,3.08-1.25,2.88,2.88,0,0,1,2.16.43,3.75,3.75,0,0,1,1.23,1.65,7.81,7.81,0,0,1,.53,2.14l2,18.63-4.24.59L923.31,477a4.09,4.09,0,0,0-.56-1.86,1.45,1.45,0,0,0-1.54-.46,3.35,3.35,0,0,0-1.52.65,8.15,8.15,0,0,0-1.41,1.29l2,18.46-4.24.6-3.53-32.24Z" transform="translate(-879.46 -462.84)"/></g><g class="cls-2"><g class="cls-2"><g class="cls-16"><g class="cls-2"><path class="cls-4" d="M939.29,472.42l2.9,2.22a2.14,2.14,0,0,0-1.62-.27,2.41,2.41,0,0,0-1.52.7,2.88,2.88,0,0,0-.55,1.71,19.68,19.68,0,0,0,.14,3.15l-2.9-2.22a18.56,18.56,0,0,1-.14-3.15,2.94,2.94,0,0,1,.55-1.72,2.41,2.41,0,0,1,1.52-.69,2.14,2.14,0,0,1,1.62.27" transform="translate(-879.46 -462.84)"/></g></g></g><polygon class="cls-13" points="56.28 14.87 59.18 17.09 59.32 18.32 56.42 16.1 56.28 14.87"/><polygon class="cls-13" points="56.67 18.41 59.57 20.64 60.08 25.25 57.17 23.03 56.67 18.41"/><g class="cls-2"><g class="cls-17"><g class="cls-2"><path class="cls-4" d="M942,469.77,944.9,472a5.88,5.88,0,0,1,1.94,3,29.18,29.18,0,0,1,1,5.34L945,478.11a28.24,28.24,0,0,0-1-5.33,5.76,5.76,0,0,0-1.94-3" transform="translate(-879.46 -462.84)"/></g></g></g><g class="cls-2"><g class="cls-18"><g class="cls-2"><path class="cls-4" d="M936.63,485.87l2.91,2.22a8.32,8.32,0,0,0,.5,2.23,2.55,2.55,0,0,0,.75,1l-2.9-2.23a2.52,2.52,0,0,1-.76-1,8.32,8.32,0,0,1-.5-2.23" transform="translate(-879.46 -462.84)"/></g></g></g><polygon class="cls-13" points="65.5 15.27 68.4 17.5 68.6 19.37 65.7 17.14 65.5 15.27"/><polygon class="cls-13" points="65.7 17.14 68.6 19.37 59.57 20.64 56.67 18.41 65.7 17.14"/><polygon class="cls-13" points="66.04 20.57 68.94 22.79 69.04 23.67 66.14 21.45 66.04 20.57"/><g class="cls-2"><g class="cls-19"><g class="cls-2"><path class="cls-4" d="M945.59,484.29l2.91,2.22a9.26,9.26,0,0,1-.87,5.65q-1.26,2.2-4.78,2.7a6.93,6.93,0,0,1-4.27-.48,3.82,3.82,0,0,1-.64-.4l-2.9-2.22a5.16,5.16,0,0,0,.63.4,7,7,0,0,0,4.28.48c2.35-.34,3.94-1.23,4.77-2.7a9.19,9.19,0,0,0,.87-5.65" transform="translate(-879.46 -462.84)"/></g></g></g><path class="cls-6" d="M945.16,480l-9,1.27.5,4.62a8.32,8.32,0,0,0,.5,2.23,2.35,2.35,0,0,0,1,1.18,2.46,2.46,0,0,0,1.54.2,2.08,2.08,0,0,0,1.39-.66,2.4,2.4,0,0,0,.53-1.41,9.44,9.44,0,0,0-.05-2l-.15-1.39,4.13-.58.09.88a9.19,9.19,0,0,1-.87,5.65c-.83,1.47-2.42,2.36-4.77,2.7a7,7,0,0,1-4.28-.48,5.22,5.22,0,0,1-2.37-2.81,18.2,18.2,0,0,1-1.13-5l-.58-5.25a18.77,18.77,0,0,1,0-5.18,5.7,5.7,0,0,1,1.75-3.35,7.3,7.3,0,0,1,4-1.62,6.34,6.34,0,0,1,4.39.6,5.68,5.68,0,0,1,2.18,3.19,28.24,28.24,0,0,1,1,5.33Zm-9.42-2.27.13,1.23,4.88-.68-.23-2.07a16.58,16.58,0,0,0-.42-2.38,2.64,2.64,0,0,0-.81-1.39,2.14,2.14,0,0,0-1.62-.27,2.41,2.41,0,0,0-1.52.69,2.94,2.94,0,0,0-.55,1.72,18.56,18.56,0,0,0,.14,3.15" transform="translate(-879.46 -462.84)"/></g><g class="cls-2"><polygon class="cls-13" points="7.26 41.85 10.16 44.07 7.75 44.41 4.84 42.19 7.26 41.85"/><g class="cls-2"><g class="cls-20"><g class="cls-2"><path class="cls-4" d="M890.63,505.22l2.9,2.22a2.74,2.74,0,0,0-.46-.29,6.29,6.29,0,0,0-3.45-.24l-2.9-2.22a6.05,6.05,0,0,1,3.44.24,2.83,2.83,0,0,1,.47.29" transform="translate(-879.46 -462.84)"/></g></g></g><g class="cls-2"><g class="cls-21"><g class="cls-2"><path class="cls-4" d="M893.87,502.54l2.9,2.22a6.12,6.12,0,0,1,1.66,2l-2.9-2.22a6.12,6.12,0,0,0-1.66-2" transform="translate(-879.46 -462.84)"/></g></g></g><g class="cls-2"><g class="cls-22"><g class="cls-2"><path class="cls-4" d="M895.53,504.5l2.9,2.22a14.42,14.42,0,0,1,1.49,5.32l-2.9-2.22a14.42,14.42,0,0,0-1.49-5.32" transform="translate(-879.46 -462.84)"/></g></g></g><polygon class="cls-13" points="4.84 42.19 7.75 44.41 10.55 70.07 7.65 67.85 4.84 42.19"/><polygon class="cls-13" points="17.56 46.98 20.46 49.2 21.76 61.07 18.86 58.85 17.56 46.98"/><polygon class="cls-13" points="10.86 70.67 13.76 72.9 6.43 73.93 3.53 71.7 10.86 70.67"/><path class="cls-6" d="M895.53,504.5a14.42,14.42,0,0,1,1.49,5.32l1.3,11.86a16.62,16.62,0,0,1-.27,5.89,7.16,7.16,0,0,1-2.5,4,10.53,10.53,0,0,1-5.23,2l-7.33,1-3.53-32.23,7-1a12,12,0,0,1,5.77.31A6,6,0,0,1,895.53,504.5Zm-1.83,17L892.56,511a21.06,21.06,0,0,0-.76-4,3.31,3.31,0,0,0-1.64-2.07,6.05,6.05,0,0,0-3.44-.24l-2.42.34,2.81,25.66,2.54-.36a5.31,5.31,0,0,0,3.38-1.44,4.54,4.54,0,0,0,.94-3,38.48,38.48,0,0,0-.27-4.45" transform="translate(-879.46 -462.84)"/><g class="cls-2"><g class="cls-23"><g class="cls-2"><path class="cls-4" d="M898.32,521.68l2.9,2.23a16.42,16.42,0,0,1-.27,5.89,7.17,7.17,0,0,1-2.49,4,10.67,10.67,0,0,1-5.24,2l-2.9-2.23a10.53,10.53,0,0,0,5.23-2,7.16,7.16,0,0,0,2.5-4,16.62,16.62,0,0,0,.27-5.89" transform="translate(-879.46 -462.84)"/></g></g></g></g><g class="cls-2"><polygon class="cls-13" points="25.89 45.21 28.8 47.43 29.15 50.69 26.25 48.47 25.89 45.21"/><g class="cls-2"><g class="cls-24"><g class="cls-2"><path class="cls-4" d="M910.45,511.51l2.91,2.22a5.3,5.3,0,0,0-1.26,0,3.75,3.75,0,0,0-1.76.71,5.27,5.27,0,0,0-1.41,2l-2.9-2.23a5.09,5.09,0,0,1,1.41-2,3.62,3.62,0,0,1,1.75-.71,5.32,5.32,0,0,1,1.26,0" transform="translate(-879.46 -462.84)"/></g></g></g><g class="cls-2"><g class="cls-25"><g class="cls-2"><path class="cls-4" d="M911.58,511.69l2.9,2.23a5.8,5.8,0,0,0-1.12-.19l-2.91-2.22a6.69,6.69,0,0,1,1.13.18" transform="translate(-879.46 -462.84)"/></g></g></g><polygon class="cls-13" points="31.61 44.16 34.51 46.39 35.02 51.08 32.12 48.85 31.61 44.16"/><polygon class="cls-13" points="28.41 68.21 31.31 70.43 27.07 71.03 24.17 68.8 28.41 68.21"/><polygon class="cls-13" points="26.57 51.42 29.48 53.64 31.31 70.43 28.41 68.21 26.57 51.42"/><path class="cls-6" d="M910.68,507h.39l.51,4.69a6.69,6.69,0,0,0-1.13-.18,5.32,5.32,0,0,0-1.26,0,3.62,3.62,0,0,0-1.75.71,5.09,5.09,0,0,0-1.41,2l1.84,16.8-4.24.59-2.52-23,4.24-.59.36,3.26a8.16,8.16,0,0,1,2.23-3.19,5.32,5.32,0,0,1,2.45-1.07Z" transform="translate(-879.46 -462.84)"/></g><g class="cls-2"><g class="cls-2"><g class="cls-26"><g class="cls-2"><path class="cls-4" d="M921.92,509.08l2.9,2.22a2.09,2.09,0,0,0-1.6-.27,2.38,2.38,0,0,0-1.51.7,2.84,2.84,0,0,0-.56,1.71,18.9,18.9,0,0,0,.15,3.16l-2.9-2.22a18.9,18.9,0,0,1-.15-3.16,2.81,2.81,0,0,1,.56-1.72,2.38,2.38,0,0,1,1.51-.69,2.1,2.1,0,0,1,1.6.27" transform="translate(-879.46 -462.84)"/></g></g></g><polygon class="cls-13" points="38.94 51.54 41.84 53.76 41.98 54.99 39.07 52.77 38.94 51.54"/><polygon class="cls-13" points="39.33 55.07 42.23 57.3 42.73 61.91 39.83 59.69 39.33 55.07"/><g class="cls-2"><g class="cls-27"><g class="cls-2"><path class="cls-4" d="M924.65,506.43l2.9,2.22a5.79,5.79,0,0,1,1.93,3,28.45,28.45,0,0,1,1,5.34l-2.9-2.23a28.49,28.49,0,0,0-1-5.33,5.81,5.81,0,0,0-1.93-3" transform="translate(-879.46 -462.84)"/></g></g></g><g class="cls-2"><g class="cls-28"><g class="cls-2"><path class="cls-4" d="M919.29,522.53l2.9,2.22a8.23,8.23,0,0,0,.5,2.23,2.49,2.49,0,0,0,.75,1l-2.91-2.22a2.56,2.56,0,0,1-.74-1,8,8,0,0,1-.5-2.23" transform="translate(-879.46 -462.84)"/></g></g></g><polygon class="cls-13" points="48.15 51.94 51.05 54.16 51.26 56.03 48.36 53.8 48.15 51.94"/><polygon class="cls-13" points="48.36 53.8 51.26 56.03 42.23 57.3 39.33 55.07 48.36 53.8"/><polygon class="cls-13" points="48.69 57.24 51.59 59.46 51.69 60.34 48.78 58.11 48.69 57.24"/><g class="cls-2"><g class="cls-29"><g class="cls-2"><path class="cls-4" d="M928.24,521l2.91,2.22a9.29,9.29,0,0,1-.87,5.66c-.83,1.46-2.43,2.36-4.78,2.69a7.07,7.07,0,0,1-4.28-.47,3.7,3.7,0,0,1-.62-.41l-2.91-2.22a5.23,5.23,0,0,0,.63.41,7.07,7.07,0,0,0,4.28.47q3.52-.49,4.77-2.7a9.12,9.12,0,0,0,.87-5.65" transform="translate(-879.46 -462.84)"/></g></g></g><path class="cls-6" d="M927.82,516.64l-9,1.27.51,4.62a8,8,0,0,0,.5,2.23,2.26,2.26,0,0,0,1,1.18,2.43,2.43,0,0,0,1.53.21,2.11,2.11,0,0,0,1.39-.67,2.37,2.37,0,0,0,.53-1.4,9.47,9.47,0,0,0,0-2l-.15-1.38,4.12-.58.09.87a9.12,9.12,0,0,1-.87,5.65q-1.25,2.21-4.77,2.7a7.07,7.07,0,0,1-4.28-.47A5.29,5.29,0,0,1,916,526a18.49,18.49,0,0,1-1.13-5l-.57-5.26a18.75,18.75,0,0,1,0-5.17,5.75,5.75,0,0,1,1.74-3.36,7.4,7.4,0,0,1,4-1.6,6.26,6.26,0,0,1,4.4.59,5.6,5.6,0,0,1,2.17,3.18,28.49,28.49,0,0,1,1,5.33Zm-9.42-2.26.13,1.22,4.87-.68-.22-2.06a16.5,16.5,0,0,0-.42-2.39,2.52,2.52,0,0,0-.82-1.38,2.09,2.09,0,0,0-1.62-.28,2.38,2.38,0,0,0-1.51.69,2.81,2.81,0,0,0-.56,1.72,18.9,18.9,0,0,0,.15,3.16" transform="translate(-879.46 -462.84)"/></g><g class="cls-2"><g class="cls-2"><g class="cls-30"><g class="cls-2"><path class="cls-4" d="M937.8,507l2.9,2.23-.11-.08a2.11,2.11,0,0,0-1.52-.3,2.23,2.23,0,0,0-1.57.93l-2.9-2.22a2.19,2.19,0,0,1,1.57-.93,2.11,2.11,0,0,1,1.52.3l.11.07" transform="translate(-879.46 -462.84)"/></g></g></g><g class="cls-2"><g class="cls-31"><g class="cls-2"><path class="cls-4" d="M934.6,507.51l2.9,2.22a2.61,2.61,0,0,0-.44,1.74,2.83,2.83,0,0,0,.4,1.14,3.13,3.13,0,0,0,.77.84l-2.9-2.23a3.17,3.17,0,0,1-.78-.83,3,3,0,0,1-.39-1.15,2.48,2.48,0,0,1,.44-1.73" transform="translate(-879.46 -462.84)"/></g></g></g><g class="cls-2"><g class="cls-32"><g class="cls-2"><path class="cls-4" d="M933.8,515.16l2.91,2.22a6.27,6.27,0,0,1-.59-.42l-2.9-2.22.58.42" transform="translate(-879.46 -462.84)"/></g></g></g><g class="cls-2"><g class="cls-33"><g class="cls-2"><path class="cls-4" d="M939.67,504.33l2.91,2.22.36.31a7.28,7.28,0,0,1,2.11,4.06l-2.9-2.23a7.41,7.41,0,0,0-2.11-4.05,3.57,3.57,0,0,0-.37-.31" transform="translate(-879.46 -462.84)"/></g></g></g><polygon class="cls-4" points="62.69 45.86 65.59 48.08 62.86 49.55 59.96 47.33 62.69 45.86"/><polygon class="cls-13" points="58.64 55.15 61.54 57.38 57.25 54.54 54.34 52.32 58.64 55.15"/><g class="cls-2"><g class="cls-34"><g class="cls-2"><path class="cls-4" d="M938.67,518.39l2.91,2.23c-.18-.14-.37-.27-.58-.41L938.1,518c.2.13.4.27.57.4" transform="translate(-879.46 -462.84)"/></g></g></g><g class="cls-2"><g class="cls-35"><g class="cls-2"><path class="cls-4" d="M934.49,520l2.9,2.22a7.82,7.82,0,0,0,1.43,3.13,3.75,3.75,0,0,0,.36.34l-2.9-2.22a2.31,2.31,0,0,1-.36-.34,7.82,7.82,0,0,1-1.43-3.13" transform="translate(-879.46 -462.84)"/></g></g></g><g class="cls-2"><g class="cls-36"><g class="cls-2"><path class="cls-4" d="M940.54,515l2.91,2.23c.42.32.82.66,1.21,1a7.58,7.58,0,0,1,1.43,1.82,6.49,6.49,0,0,1,.76,2.52,6.34,6.34,0,0,1-.44,3.38,5.17,5.17,0,0,1-2,2.27,8.08,8.08,0,0,1-3.26,1.13,5.86,5.86,0,0,1-4.58-1l-2.91-2.22a5.93,5.93,0,0,0,4.59,1,8.23,8.23,0,0,0,3.26-1.13,5.25,5.25,0,0,0,2-2.28,6.31,6.31,0,0,0,.44-3.37,6.6,6.6,0,0,0-.76-2.53,7.78,7.78,0,0,0-1.43-1.81c-.39-.36-.8-.71-1.22-1" transform="translate(-879.46 -462.84)"/></g></g></g><path class="cls-6" d="M935.66,503.47a5,5,0,0,1,4.38,1.17,7.41,7.41,0,0,1,2.11,4.05l-2.74,1.48a9.49,9.49,0,0,0-.7-2,3,3,0,0,0-1-1.27,2.11,2.11,0,0,0-1.52-.3,2.19,2.19,0,0,0-1.57.93,2.48,2.48,0,0,0-.44,1.73,3,3,0,0,0,.39,1.15,3.31,3.31,0,0,0,1,1l4.46,3.18a15.54,15.54,0,0,1,1.74,1.41,7.78,7.78,0,0,1,1.43,1.81,6.6,6.6,0,0,1,.76,2.53,6.31,6.31,0,0,1-.44,3.37,5.25,5.25,0,0,1-2,2.28,8.23,8.23,0,0,1-3.26,1.13,5.89,5.89,0,0,1-4.71-1.14,7.15,7.15,0,0,1-2.45-4.4l3.4-1.57a7.82,7.82,0,0,0,1.43,3.13,2.46,2.46,0,0,0,2.34.78,2.32,2.32,0,0,0,1.68-.9,2.65,2.65,0,0,0,.39-1.85,3.67,3.67,0,0,0-.62-1.73A5.77,5.77,0,0,0,938.1,518l-4.3-2.83a10.4,10.4,0,0,1-2.25-2,6,6,0,0,1-1.17-3.18,6.27,6.27,0,0,1,.39-3.19,5.07,5.07,0,0,1,1.85-2.2A7,7,0,0,1,935.66,503.47Z" transform="translate(-879.46 -462.84)"/></g><g class="cls-2"><g class="cls-2"><g class="cls-37"><g class="cls-2"><path class="cls-4" d="M952.61,504.87l2.9,2.22-.1-.07a2.07,2.07,0,0,0-1.52-.3,2.21,2.21,0,0,0-1.58.93l-2.9-2.22a2.19,2.19,0,0,1,1.58-.93,2,2,0,0,1,1.52.3l.1.07" transform="translate(-879.46 -462.84)"/></g></g></g><g class="cls-2"><g class="cls-38"><g class="cls-2"><path class="cls-4" d="M949.41,505.43l2.9,2.22a2.52,2.52,0,0,0-.42,1.73,2.79,2.79,0,0,0,.38,1.15,2.87,2.87,0,0,0,.78.83l-2.9-2.22a2.87,2.87,0,0,1-.78-.83,2.7,2.7,0,0,1-.38-1.15,2.52,2.52,0,0,1,.42-1.73" transform="translate(-879.46 -462.84)"/></g></g></g><g class="cls-2"><g class="cls-39"><g class="cls-2"><path class="cls-4" d="M948.63,513.07l2.9,2.23-.62-.44-2.9-2.22c.2.15.4.29.62.43" transform="translate(-879.46 -462.84)"/></g></g></g><g class="cls-2"><g class="cls-40"><g class="cls-2"><path class="cls-4" d="M954.49,502.25l2.9,2.22.37.31a7.41,7.41,0,0,1,2.11,4.05l-2.9-2.22a7.38,7.38,0,0,0-2.11-4.05c-.12-.11-.25-.22-.37-.31" transform="translate(-879.46 -462.84)"/></g></g></g><polygon class="cls-4" points="77.51 43.77 80.41 46 77.67 47.47 74.77 45.25 77.51 43.77"/><polygon class="cls-13" points="73.46 53.07 76.36 55.29 72.07 52.46 69.17 50.24 73.46 53.07"/><g class="cls-2"><g class="cls-41"><g class="cls-2"><path class="cls-4" d="M953.48,516.3l2.9,2.22c-.17-.13-.36-.26-.56-.39l-2.9-2.22c.2.13.39.26.56.39" transform="translate(-879.46 -462.84)"/></g></g></g><g class="cls-2"><g class="cls-42"><g class="cls-2"><path class="cls-4" d="M949.32,517.91l2.9,2.22a7.56,7.56,0,0,0,1.43,3.13,2.31,2.31,0,0,0,.36.34l-2.9-2.22a2.31,2.31,0,0,1-.36-.34,7.62,7.62,0,0,1-1.43-3.13" transform="translate(-879.46 -462.84)"/></g></g></g><g class="cls-2"><g class="cls-43"><g class="cls-2"><path class="cls-4" d="M955.36,512.87l2.9,2.22c.42.32.83.67,1.22,1a7.52,7.52,0,0,1,1.43,1.81,6.6,6.6,0,0,1,.76,2.53,6.4,6.4,0,0,1-.44,3.37,5.25,5.25,0,0,1-2,2.28,8.18,8.18,0,0,1-3.26,1.13,5.92,5.92,0,0,1-4.59-1l-2.9-2.23a5.92,5.92,0,0,0,4.59,1,8.13,8.13,0,0,0,3.25-1.13,5.21,5.21,0,0,0,2-2.28,6.32,6.32,0,0,0,.43-3.37,6.59,6.59,0,0,0-.75-2.53,7.78,7.78,0,0,0-1.43-1.81c-.4-.36-.8-.71-1.22-1" transform="translate(-879.46 -462.84)"/></g></g></g><path class="cls-6" d="M950.48,501.38a5,5,0,0,1,4.38,1.18,7.38,7.38,0,0,1,2.11,4.05l-2.74,1.48a10.08,10.08,0,0,0-.7-2,3.18,3.18,0,0,0-1-1.27,2,2,0,0,0-1.52-.3,2.19,2.19,0,0,0-1.58.93,2.52,2.52,0,0,0-.42,1.73,2.7,2.7,0,0,0,.38,1.15,3.31,3.31,0,0,0,1,1l4.46,3.18a17.6,17.6,0,0,1,1.74,1.41,7.78,7.78,0,0,1,1.43,1.81,6.59,6.59,0,0,1,.75,2.53,6.32,6.32,0,0,1-.43,3.37,5.21,5.21,0,0,1-2,2.28,8.13,8.13,0,0,1-3.25,1.13,5.88,5.88,0,0,1-4.71-1.14,7.15,7.15,0,0,1-2.45-4.4l3.41-1.57a7.62,7.62,0,0,0,1.43,3.13,2.44,2.44,0,0,0,2.33.78,2.28,2.28,0,0,0,1.67-.9,2.61,2.61,0,0,0,.41-1.85,3.65,3.65,0,0,0-.64-1.73,5.71,5.71,0,0,0-1.6-1.43l-4.29-2.84a9.54,9.54,0,0,1-2.26-2,5.92,5.92,0,0,1-1.17-3.19,6.09,6.09,0,0,1,.4-3.19,5.09,5.09,0,0,1,1.84-2.2A7.24,7.24,0,0,1,950.48,501.38Z" transform="translate(-879.46 -462.84)"/></g></svg>