<svg id="Capa_1" data-name="Capa 1" xmlns="http://www.w3.org/2000/svg" xmlns:xlink="http://www.w3.org/1999/xlink" viewBox="0 0 96.66 86.06"><defs><style>.cls-1{fill:none;}.cls-2{isolation:isolate;}.cls-3{fill:#28bccc;}.cls-4{fill:#2ae2c8;}.cls-5{clip-path:url(#clip-path);}.cls-6{fill:#28bdcc;}.cls-7{clip-path:url(#clip-path-2);}.cls-8{clip-path:url(#clip-path-3);}.cls-9{clip-path:url(#clip-path-4);}.cls-10{clip-path:url(#clip-path-5);}.cls-11{clip-path:url(#clip-path-6);}.cls-12{clip-path:url(#clip-path-7);}.cls-13{clip-path:url(#clip-path-8);}.cls-14{clip-path:url(#clip-path-9);}.cls-15{clip-path:url(#clip-path-10);}.cls-16{clip-path:url(#clip-path-11);}.cls-17{clip-path:url(#clip-path-12);}.cls-18{clip-path:url(#clip-path-13);}.cls-19{clip-path:url(#clip-path-14);}.cls-20{clip-path:url(#clip-path-15);}.cls-21{clip-path:url(#clip-path-16);}.cls-22{clip-path:url(#clip-path-17);}.cls-23{clip-path:url(#clip-path-18);}.cls-24{clip-path:url(#clip-path-19);}.cls-25{clip-path:url(#clip-path-20);}.cls-26{clip-path:url(#clip-path-21);}.cls-27{clip-path:url(#clip-path-22);}.cls-28{clip-path:url(#clip-path-23);}.cls-29{clip-path:url(#clip-path-24);}.cls-30{clip-path:url(#clip-path-25);}.cls-31{clip-path:url(#clip-path-26);}.cls-32{clip-path:url(#clip-path-27);}.cls-33{clip-path:url(#clip-path-28);}</style><clipPath id="clip-path" transform="translate(-899.16 -495.53)"><path class="cls-1" d="M947.85,509.76l2.9,2.23a2,2,0,0,0-1.54-.27,4.09,4.09,0,0,0-1.8.78,10.32,10.32,0,0,0-1.66,1.52l-2.9-2.22a9.88,9.88,0,0,1,1.66-1.52,4,4,0,0,1,1.8-.78A2,2,0,0,1,947.85,509.76Z"/></clipPath><clipPath id="clip-path-2" transform="translate(-899.16 -495.53)"><path class="cls-1" d="M951.58,505.63l2.91,2.22a4.46,4.46,0,0,1,1.42,1.93,10,10,0,0,1,.64,2.53l-2.91-2.22a9.65,9.65,0,0,0-.63-2.54A4.5,4.5,0,0,0,951.58,505.63Z"/></clipPath><clipPath id="clip-path-3" transform="translate(-899.16 -495.53)"><path class="cls-1" d="M967.66,506.85l2.91,2.23a2.54,2.54,0,0,0-1.92-.33,2.78,2.78,0,0,0-1.78.82,3.39,3.39,0,0,0-.66,2,21.66,21.66,0,0,0,.17,3.72l-2.91-2.22a22.61,22.61,0,0,1-.16-3.73,3.38,3.38,0,0,1,.66-2,2.84,2.84,0,0,1,1.78-.83A2.54,2.54,0,0,1,967.66,506.85Z"/></clipPath><clipPath id="clip-path-4" transform="translate(-899.16 -495.53)"><path class="cls-1" d="M970.85,503.71l2.9,2.22a7,7,0,0,1,2.31,3.57,34.33,34.33,0,0,1,1.2,6.3l-2.9-2.22a33.72,33.72,0,0,0-1.21-6.31A7,7,0,0,0,970.85,503.71Z"/></clipPath><clipPath id="clip-path-5" transform="translate(-899.16 -495.53)"><path class="cls-1" d="M968.91,528.81,966,526.59a2.86,2.86,0,0,1-.87-1.22,9.49,9.49,0,0,1-.6-2.63l2.9,2.22a9.49,9.49,0,0,0,.6,2.63A2.8,2.8,0,0,0,968.91,528.81Z"/></clipPath><clipPath id="clip-path-6" transform="translate(-899.16 -495.53)"><path class="cls-1" d="M965.54,531.91l-2.9-2.22a4.69,4.69,0,0,0,.76.49,8.22,8.22,0,0,0,5.05.55q4.15-.59,5.64-3.18a11,11,0,0,0,1-6.68l2.9,2.22a10.92,10.92,0,0,1-1,6.68q-1.47,2.6-5.64,3.18a8.22,8.22,0,0,1-5.05-.55A5.17,5.17,0,0,1,965.54,531.91Z"/></clipPath><clipPath id="clip-path-7" transform="translate(-899.16 -495.53)"><path class="cls-1" d="M912.35,544.72l2.91,2.22a4.53,4.53,0,0,0-.55-.34,7.36,7.36,0,0,0-4.07-.29l-2.91-2.22a7.24,7.24,0,0,1,4.07.29A3.38,3.38,0,0,1,912.35,544.72Z"/></clipPath><clipPath id="clip-path-8" transform="translate(-899.16 -495.53)"><path class="cls-1" d="M916.18,541.55l2.9,2.22a7.28,7.28,0,0,1,2,2.32l-2.9-2.23A7.48,7.48,0,0,0,916.18,541.55Z"/></clipPath><clipPath id="clip-path-9" transform="translate(-899.16 -495.53)"><path class="cls-1" d="M918.14,543.86l2.9,2.23a17,17,0,0,1,1.76,6.29l-2.91-2.22A17,17,0,0,0,918.14,543.86Z"/></clipPath><clipPath id="clip-path-10" transform="translate(-899.16 -495.53)"><path class="cls-1" d="M921.43,564.17l2.9,2.22a19.53,19.53,0,0,1-.31,7,8.46,8.46,0,0,1-2.95,4.68,12.54,12.54,0,0,1-6.19,2.33l-2.9-2.22a12.54,12.54,0,0,0,6.19-2.33,8.51,8.51,0,0,0,3-4.68A19.78,19.78,0,0,0,921.43,564.17Z"/></clipPath><clipPath id="clip-path-11" transform="translate(-899.16 -495.53)"><path class="cls-1" d="M937.11,552.37l2.9,2.22a7.84,7.84,0,0,0-1.33-.22,7.45,7.45,0,0,0-1.49,0,4.43,4.43,0,0,0-2.07.85,6,6,0,0,0-1.67,2.36l-2.9-2.23a6.06,6.06,0,0,1,1.66-2.35,4.51,4.51,0,0,1,2.08-.85,6.77,6.77,0,0,1,1.49,0A8,8,0,0,1,937.11,552.37Z"/></clipPath><clipPath id="clip-path-12" transform="translate(-899.16 -495.53)"><path class="cls-1" d="M949.34,549.29l2.91,2.22a2.54,2.54,0,0,0-1.92-.32,2.74,2.74,0,0,0-1.78.82,3.36,3.36,0,0,0-.66,2,22.53,22.53,0,0,0,.16,3.72l-2.9-2.23a21.36,21.36,0,0,1-.16-3.71,3.24,3.24,0,0,1,.66-2,2.74,2.74,0,0,1,1.78-.82A2.5,2.5,0,0,1,949.34,549.29Z"/></clipPath><clipPath id="clip-path-13" transform="translate(-899.16 -495.53)"><path class="cls-1" d="M952.53,546.14l2.9,2.22a7,7,0,0,1,2.31,3.58,34.2,34.2,0,0,1,1.2,6.29L956,556a33.32,33.32,0,0,0-1.21-6.29A7,7,0,0,0,952.53,546.14Z"/></clipPath><clipPath id="clip-path-14" transform="translate(-899.16 -495.53)"><path class="cls-1" d="M950.58,571.24l-2.9-2.22a2.83,2.83,0,0,1-.87-1.21,9.49,9.49,0,0,1-.6-2.63l2.9,2.22a9.66,9.66,0,0,0,.6,2.64A2.85,2.85,0,0,0,950.58,571.24Z"/></clipPath><clipPath id="clip-path-15" transform="translate(-899.16 -495.53)"><path class="cls-1" d="M947.22,574.35l-2.9-2.22a5.41,5.41,0,0,0,.76.48,8.28,8.28,0,0,0,5,.56c2.77-.39,4.65-1.46,5.64-3.18a11,11,0,0,0,1-6.69l2.91,2.23a10.94,10.94,0,0,1-1,6.68q-1.47,2.6-5.64,3.18a8.29,8.29,0,0,1-5-.55A6.58,6.58,0,0,1,947.22,574.35Z"/></clipPath><clipPath id="clip-path-16" transform="translate(-899.16 -495.53)"><path class="cls-1" d="M968.06,546.75,971,549l-.11-.08a2.46,2.46,0,0,0-1.79-.34,2.56,2.56,0,0,0-1.86,1.09,3,3,0,0,0-.51,2.05,3.34,3.34,0,0,0,.46,1.35,3.54,3.54,0,0,0,.92,1l-2.9-2.23a3.57,3.57,0,0,1-.93-1,3.37,3.37,0,0,1-.45-1.35,3,3,0,0,1,.51-2.05,2.57,2.57,0,0,1,1.86-1.1,2.51,2.51,0,0,1,1.79.34Z"/></clipPath><clipPath id="clip-path-17" transform="translate(-899.16 -495.53)"><path class="cls-1" d="M965.61,558.22l-2.9-2.22.65.47,2.91,2.22C966,558.54,965.82,558.38,965.61,558.22Z"/></clipPath><clipPath id="clip-path-18" transform="translate(-899.16 -495.53)"><path class="cls-1" d="M970.27,543.65l2.9,2.22.46.4a8.61,8.61,0,0,1,2.49,4.78l-2.9-2.23a8.61,8.61,0,0,0-2.49-4.77A4.25,4.25,0,0,0,970.27,543.65Z"/></clipPath><clipPath id="clip-path-19" transform="translate(-899.16 -495.53)"><path class="cls-1" d="M969.1,560.27l2.9,2.23a7,7,0,0,0-.66-.47l-2.91-2.22C968.67,560,968.89,560.12,969.1,560.27Z"/></clipPath><clipPath id="clip-path-20" transform="translate(-899.16 -495.53)"><path class="cls-1" d="M969.21,568.5l-2.91-2.22a4.12,4.12,0,0,1-.43-.41,9,9,0,0,1-1.69-3.7l2.91,2.22a8.88,8.88,0,0,0,1.68,3.7A2.82,2.82,0,0,0,969.21,568.5Z"/></clipPath><clipPath id="clip-path-21" transform="translate(-899.16 -495.53)"><path class="cls-1" d="M971.38,556.26l2.9,2.22c.48.37.94.76,1.39,1.18a8.94,8.94,0,0,1,1.68,2.14,7.73,7.73,0,0,1,.9,3,7.52,7.52,0,0,1-.52,4,6.1,6.1,0,0,1-2.37,2.69,9.45,9.45,0,0,1-3.84,1.33,7,7,0,0,1-5.44-1.24l-2.9-2.22a7,7,0,0,0,5.43,1.24,9.55,9.55,0,0,0,3.85-1.33,6.08,6.08,0,0,0,2.37-2.7,7.49,7.49,0,0,0,.52-4,7.73,7.73,0,0,0-.9-3,8.73,8.73,0,0,0-1.69-2.14A17.18,17.18,0,0,0,971.38,556.26Z"/></clipPath><clipPath id="clip-path-22" transform="translate(-899.16 -495.53)"><path class="cls-1" d="M985.58,551.59l-2.9-2.23a3.29,3.29,0,0,1-1.39-2.34,3,3,0,0,1,.52-2,2.53,2.53,0,0,1,1.85-1.09,2.47,2.47,0,0,1,1.8.33l2.9,2.23a2.47,2.47,0,0,0-1.8-.34,2.56,2.56,0,0,0-1.85,1.09,2.91,2.91,0,0,0-.51,2,3.19,3.19,0,0,0,.46,1.35A3.54,3.54,0,0,0,985.58,551.59Z"/></clipPath><clipPath id="clip-path-23" transform="translate(-899.16 -495.53)"><path class="cls-1" d="M985.55,544.28l2.9,2.22-.09-.06-2.9-2.23Z"/></clipPath><clipPath id="clip-path-24" transform="translate(-899.16 -495.53)"><path class="cls-1" d="M983.09,555.74l-2.9-2.23c.22.17.45.34.68.49l2.91,2.23C983.54,556.07,983.31,555.91,983.09,555.74Z"/></clipPath><clipPath id="clip-path-25" transform="translate(-899.16 -495.53)"><path class="cls-1" d="M987.78,541.19l2.91,2.23.45.39a8.61,8.61,0,0,1,2.49,4.78l-2.9-2.23a8.74,8.74,0,0,0-2.49-4.78A5.58,5.58,0,0,0,987.78,541.19Z"/></clipPath><clipPath id="clip-path-26" transform="translate(-899.16 -495.53)"><path class="cls-1" d="M986.61,557.81l2.9,2.22c-.2-.15-.42-.31-.66-.46l-2.91-2.22C986.18,557.5,986.4,557.66,986.61,557.81Z"/></clipPath><clipPath id="clip-path-27" transform="translate(-899.16 -495.53)"><path class="cls-1" d="M986.7,566l-2.9-2.22a3.19,3.19,0,0,1-.43-.4,9.27,9.27,0,0,1-1.69-3.7l2.91,2.22a9,9,0,0,0,1.69,3.7A2.63,2.63,0,0,0,986.7,566Z"/></clipPath><clipPath id="clip-path-28" transform="translate(-899.16 -495.53)"><path class="cls-1" d="M988.89,553.8l2.9,2.22c.48.37.94.76,1.39,1.18a9.2,9.2,0,0,1,1.68,2.14,7.73,7.73,0,0,1,.89,3,7.47,7.47,0,0,1-.51,4,6.08,6.08,0,0,1-2.37,2.7,9.45,9.45,0,0,1-3.84,1.33,7,7,0,0,1-5.44-1.24l-2.9-2.22a7,7,0,0,0,5.43,1.24,9.55,9.55,0,0,0,3.85-1.33,6.14,6.14,0,0,0,2.37-2.7,8.53,8.53,0,0,0-.39-7,9,9,0,0,0-1.68-2.15A17.06,17.06,0,0,0,988.89,553.8Z"/></clipPath></defs><g class="cls-2"><polygon class="cls-3" points="22.45 6.75 25.35 8.97 18.93 9.87 16.03 7.65 22.45 6.75"/><polygon class="cls-3" points="33.96 5.13 36.87 7.35 30.64 8.22 27.74 6 33.96 5.13"/><polygon class="cls-3" points="33.53 1.18 36.43 3.4 36.87 7.35 33.96 5.13 33.53 1.18"/><polygon class="cls-3" points="31.48 40.13 34.38 42.35 29.09 43.1 26.18 40.88 31.48 40.13"/><polygon class="cls-3" points="27.74 6 30.64 8.22 34.38 42.35 31.48 40.13 27.74 6"/><polygon class="cls-4" points="33.53 1.18 33.96 5.13 27.74 6 31.48 40.13 26.18 40.88 22.45 6.75 16.03 7.65 15.6 3.7 33.53 1.18"/></g><g class="cls-2"><polygon class="cls-3" points="41.91 0 44.81 2.22 46.32 15.96 43.42 13.73 41.91 0"/><g class="cls-2"><g class="cls-5"><g class="cls-2"><path class="cls-6" d="M947.85,509.76l2.9,2.23a2,2,0,0,0-1.54-.27,4.09,4.09,0,0,0-1.8.78,10.32,10.32,0,0,0-1.66,1.52l-2.9-2.22a9.88,9.88,0,0,1,1.66-1.52,4,4,0,0,1,1.8-.78,2,2,0,0,1,1.54.26" transform="translate(-899.16 -495.53)"/></g></g></g><g class="cls-2"><g class="cls-7"><g class="cls-2"><path class="cls-6" d="M951.58,505.63l2.91,2.22a4.46,4.46,0,0,1,1.42,1.93,10,10,0,0,1,.64,2.53l-2.91-2.22a9.65,9.65,0,0,0-.63-2.54,4.5,4.5,0,0,0-1.43-1.92" transform="translate(-899.16 -495.53)"/></g></g></g><polygon class="cls-3" points="43.69 16.27 46.6 18.49 48.98 40.3 46.08 38.08 43.69 16.27"/><polygon class="cls-3" points="46.08 38.08 48.98 40.3 43.97 41.01 41.07 38.78 46.08 38.08"/><polygon class="cls-3" points="56.89 36.56 59.8 38.78 54.78 39.49 51.88 37.26 56.89 36.56"/><polygon class="cls-3" points="54.49 14.56 57.39 16.78 59.8 38.78 56.89 36.56 54.49 14.56"/><path class="cls-4" d="M941.07,495.53l1.5,13.73a15.08,15.08,0,0,1,2.79-2.68,7.86,7.86,0,0,1,3.65-1.47,3.33,3.33,0,0,1,2.55.5,4.47,4.47,0,0,1,1.45,1.94,9.65,9.65,0,0,1,.63,2.54l2.41,22-5,.7-2.25-20.53a4.89,4.89,0,0,0-.67-2.2,1.72,1.72,0,0,0-1.81-.56,4,4,0,0,0-1.8.78,9.88,9.88,0,0,0-1.66,1.52l2.39,21.81-5,.7-4.17-38.08Z" transform="translate(-899.16 -495.53)"/></g><g class="cls-2"><g class="cls-2"><g class="cls-8"><g class="cls-2"><path class="cls-6" d="M967.66,506.85l2.91,2.23a2.54,2.54,0,0,0-1.92-.33,2.78,2.78,0,0,0-1.78.82,3.39,3.39,0,0,0-.66,2,21.66,21.66,0,0,0,.17,3.72l-2.91-2.22a22.61,22.61,0,0,1-.16-3.73,3.38,3.38,0,0,1,.66-2,2.84,2.84,0,0,1,1.78-.83,2.54,2.54,0,0,1,1.91.33" transform="translate(-899.16 -495.53)"/></g></g></g><polygon class="cls-3" points="64.32 17.57 67.22 19.79 67.38 21.25 64.47 19.03 64.32 17.57"/><polygon class="cls-3" points="64.77 21.76 67.68 23.98 68.27 29.43 65.37 27.21 64.77 21.76"/><g class="cls-2"><g class="cls-9"><g class="cls-2"><path class="cls-6" d="M970.85,503.71l2.9,2.22a7,7,0,0,1,2.31,3.57,34.33,34.33,0,0,1,1.2,6.3l-2.9-2.22a33.72,33.72,0,0,0-1.21-6.31,7,7,0,0,0-2.3-3.56" transform="translate(-899.16 -495.53)"/></g></g></g><g class="cls-2"><g class="cls-10"><g class="cls-2"><path class="cls-6" d="M964.53,522.74l2.9,2.22a9.49,9.49,0,0,0,.6,2.63,2.8,2.8,0,0,0,.88,1.22L966,526.59a2.86,2.86,0,0,1-.87-1.22,9.49,9.49,0,0,1-.6-2.63" transform="translate(-899.16 -495.53)"/></g></g></g><polygon class="cls-3" points="75.2 18.05 78.11 20.27 78.35 22.48 75.45 20.26 75.2 18.05"/><polygon class="cls-3" points="75.45 20.26 78.35 22.48 67.68 23.98 64.77 21.76 75.45 20.26"/><polygon class="cls-3" points="75.84 24.3 78.75 26.52 78.86 27.56 75.96 25.34 75.84 24.3"/><g class="cls-2"><g class="cls-11"><g class="cls-2"><path class="cls-6" d="M975.12,520.87l2.9,2.22a10.92,10.92,0,0,1-1,6.68q-1.47,2.6-5.64,3.18a8.22,8.22,0,0,1-5.05-.55,5.17,5.17,0,0,1-.76-.49l-2.9-2.22a4.69,4.69,0,0,0,.76.49,8.22,8.22,0,0,0,5.05.55q4.15-.59,5.64-3.18a11,11,0,0,0,1-6.68" transform="translate(-899.16 -495.53)"/></g></g></g><path class="cls-4" d="M974.6,515.79l-10.67,1.5.6,5.45a9.49,9.49,0,0,0,.6,2.63,2.69,2.69,0,0,0,1.15,1.4,2.85,2.85,0,0,0,1.81.24,2.57,2.57,0,0,0,1.65-.78,3,3,0,0,0,.62-1.67,11.6,11.6,0,0,0-.05-2.4l-.18-1.64,4.87-.69.12,1a11,11,0,0,1-1,6.68q-1.49,2.6-5.64,3.18a8.22,8.22,0,0,1-5.05-.55,6.28,6.28,0,0,1-2.82-3.33,21.86,21.86,0,0,1-1.32-5.85l-.68-6.21a21.65,21.65,0,0,1,0-6.12,6.73,6.73,0,0,1,2.06-4,8.66,8.66,0,0,1,4.71-1.9c2.28-.32,4-.09,5.19.7a6.77,6.77,0,0,1,2.57,3.76,33.72,33.72,0,0,1,1.21,6.31Zm-11.13-2.69.16,1.46,5.76-.81-.27-2.45a19.32,19.32,0,0,0-.49-2.82,3.1,3.1,0,0,0-1-1.63,2.54,2.54,0,0,0-1.91-.33,2.84,2.84,0,0,0-1.78.83,3.38,3.38,0,0,0-.66,2,22.61,22.61,0,0,0,.16,3.73" transform="translate(-899.16 -495.53)"/></g><g class="cls-2"><polygon class="cls-3" points="8.58 48.56 11.48 50.78 8.62 51.19 5.72 48.97 8.58 48.56"/><g class="cls-2"><g class="cls-12"><g class="cls-2"><path class="cls-6" d="M912.35,544.72l2.91,2.22a4.53,4.53,0,0,0-.55-.34,7.36,7.36,0,0,0-4.07-.29l-2.91-2.22a7.24,7.24,0,0,1,4.07.29,3.38,3.38,0,0,1,.55.34" transform="translate(-899.16 -495.53)"/></g></g></g><g class="cls-2"><g class="cls-13"><g class="cls-2"><path class="cls-6" d="M916.18,541.55l2.9,2.22a7.28,7.28,0,0,1,2,2.32l-2.9-2.23a7.48,7.48,0,0,0-2-2.31" transform="translate(-899.16 -495.53)"/></g></g></g><g class="cls-2"><g class="cls-14"><g class="cls-2"><path class="cls-6" d="M918.14,543.86l2.9,2.23a17,17,0,0,1,1.76,6.29l-2.91-2.22a17,17,0,0,0-1.75-6.3" transform="translate(-899.16 -495.53)"/></g></g></g><polygon class="cls-3" points="5.72 48.97 8.62 51.19 11.94 81.51 9.04 79.29 5.72 48.97"/><polygon class="cls-3" points="20.74 54.63 23.64 56.85 25.17 70.86 22.27 68.64 20.74 54.63"/><polygon class="cls-3" points="12.82 82.62 15.72 84.84 7.07 86.06 4.17 83.84 12.82 82.62"/><path class="cls-4" d="M918.14,543.86a17,17,0,0,1,1.75,6.3l1.54,14a19.78,19.78,0,0,1-.31,7,8.51,8.51,0,0,1-3,4.68,12.54,12.54,0,0,1-6.19,2.33l-8.66,1.22-4.16-38.08,8.23-1.16a14.45,14.45,0,0,1,6.81.35A7.13,7.13,0,0,1,918.14,543.86ZM916,563.93l-1.35-12.36a25.3,25.3,0,0,0-.89-4.74,3.88,3.88,0,0,0-1.94-2.45,7.24,7.24,0,0,0-4.07-.29l-2.86.4,3.32,30.33,3-.43a6.28,6.28,0,0,0,4-1.7,5.46,5.46,0,0,0,1.11-3.51,42.77,42.77,0,0,0-.32-5.25" transform="translate(-899.16 -495.53)"/><g class="cls-2"><g class="cls-15"><g class="cls-2"><path class="cls-6" d="M921.43,564.17l2.9,2.22a19.53,19.53,0,0,1-.31,7,8.46,8.46,0,0,1-2.95,4.68,12.54,12.54,0,0,1-6.19,2.33l-2.9-2.22a12.54,12.54,0,0,0,6.19-2.33,8.51,8.51,0,0,0,3-4.68,19.78,19.78,0,0,0,.31-7" transform="translate(-899.16 -495.53)"/></g></g></g></g><g class="cls-2"><polygon class="cls-3" points="30.59 52.53 33.49 54.75 33.91 58.6 31.01 56.38 30.59 52.53"/><g class="cls-2"><g class="cls-16"><g class="cls-2"><path class="cls-6" d="M937.11,552.37l2.9,2.22a7.84,7.84,0,0,0-1.33-.22,7.45,7.45,0,0,0-1.49,0,4.43,4.43,0,0,0-2.07.85,6,6,0,0,0-1.67,2.36l-2.9-2.23a6.06,6.06,0,0,1,1.66-2.35,4.51,4.51,0,0,1,2.08-.85,6.77,6.77,0,0,1,1.49,0,8,8,0,0,1,1.33.22" transform="translate(-899.16 -495.53)"/></g></g></g><polygon class="cls-3" points="37.34 51.3 40.24 53.52 40.85 59.06 37.95 56.84 37.34 51.3"/><polygon class="cls-3" points="33.56 79.71 36.47 81.93 31.45 82.63 28.55 80.41 33.56 79.71"/><polygon class="cls-3" points="31.39 59.87 34.29 62.09 36.47 81.93 33.56 79.71 31.39 59.87"/><path class="cls-4" d="M936.05,546.84l.45,0,.61,5.55a8,8,0,0,0-1.33-.22,6.77,6.77,0,0,0-1.49,0,4.51,4.51,0,0,0-2.08.85,6.06,6.06,0,0,0-1.66,2.35l2.17,19.85-5,.7-3-27.18,5-.7.43,3.85a9.64,9.64,0,0,1,2.62-3.75,6.24,6.24,0,0,1,2.91-1.27Z" transform="translate(-899.16 -495.53)"/></g><g class="cls-2"><g class="cls-2"><g class="cls-17"><g class="cls-2"><path class="cls-6" d="M949.34,549.29l2.91,2.22a2.54,2.54,0,0,0-1.92-.32,2.74,2.74,0,0,0-1.78.82,3.36,3.36,0,0,0-.66,2,22.53,22.53,0,0,0,.16,3.72l-2.9-2.23a21.36,21.36,0,0,1-.16-3.71,3.24,3.24,0,0,1,.66-2,2.74,2.74,0,0,1,1.78-.82,2.5,2.5,0,0,1,1.91.32" transform="translate(-899.16 -495.53)"/></g></g></g><polygon class="cls-3" points="45.99 60.01 48.9 62.23 49.06 63.69 46.16 61.47 45.99 60.01"/><polygon class="cls-3" points="46.45 64.19 49.36 66.42 49.95 71.87 47.05 69.65 46.45 64.19"/><g class="cls-2"><g class="cls-18"><g class="cls-2"><path class="cls-6" d="M952.53,546.14l2.9,2.22a7,7,0,0,1,2.31,3.58,34.2,34.2,0,0,1,1.2,6.29L956,556a33.32,33.32,0,0,0-1.21-6.29,7,7,0,0,0-2.3-3.58" transform="translate(-899.16 -495.53)"/></g></g></g><g class="cls-2"><g class="cls-19"><g class="cls-2"><path class="cls-6" d="M946.21,565.18l2.9,2.22a9.66,9.66,0,0,0,.6,2.64,2.85,2.85,0,0,0,.87,1.2l-2.9-2.22a2.83,2.83,0,0,1-.87-1.21,9.49,9.49,0,0,1-.6-2.63" transform="translate(-899.16 -495.53)"/></g></g></g><polygon class="cls-3" points="56.88 60.48 59.79 62.7 60.03 64.92 57.13 62.69 56.88 60.48"/><polygon class="cls-3" points="57.13 62.69 60.03 64.92 49.36 66.42 46.45 64.19 57.13 62.69"/><polygon class="cls-3" points="57.52 66.74 60.43 68.97 60.54 70 57.64 67.78 57.52 66.74"/><g class="cls-2"><g class="cls-20"><g class="cls-2"><path class="cls-6" d="M956.79,563.3l2.91,2.23a10.94,10.94,0,0,1-1,6.68q-1.47,2.6-5.64,3.18a8.29,8.29,0,0,1-5-.55,6.58,6.58,0,0,1-.76-.49l-2.9-2.22a5.41,5.41,0,0,0,.76.48,8.28,8.28,0,0,0,5,.56c2.77-.39,4.65-1.46,5.64-3.18a11,11,0,0,0,1-6.69" transform="translate(-899.16 -495.53)"/></g></g></g><path class="cls-4" d="M956.28,558.22l-10.67,1.5.6,5.46a9.49,9.49,0,0,0,.6,2.63A2.62,2.62,0,0,0,948,569.2a2.91,2.91,0,0,0,1.81.25,2.57,2.57,0,0,0,1.65-.78A3,3,0,0,0,952,567a11.68,11.68,0,0,0,0-2.41l-.18-1.64,4.87-.69.11,1a11,11,0,0,1-1,6.69c-1,1.72-2.87,2.79-5.64,3.18a8.28,8.28,0,0,1-5-.56,6.21,6.21,0,0,1-2.82-3.32,21.94,21.94,0,0,1-1.32-5.86l-.68-6.21a21.58,21.58,0,0,1,0-6.11,6.61,6.61,0,0,1,2.06-4,8.58,8.58,0,0,1,4.71-1.91c2.28-.32,4-.08,5.19.7a6.75,6.75,0,0,1,2.57,3.78A33.32,33.32,0,0,1,956,556Zm-11.13-2.69.16,1.47,5.76-.81-.27-2.45a18.68,18.68,0,0,0-.49-2.81,3.09,3.09,0,0,0-1-1.64,2.5,2.5,0,0,0-1.91-.32,2.74,2.74,0,0,0-1.78.82,3.24,3.24,0,0,0-.66,2,21.36,21.36,0,0,0,.16,3.71" transform="translate(-899.16 -495.53)"/></g><g class="cls-2"><g class="cls-2"><g class="cls-21"><g class="cls-2"><path class="cls-6" d="M968.06,546.75,971,549l-.11-.08a2.46,2.46,0,0,0-1.79-.34,2.56,2.56,0,0,0-1.86,1.09,3,3,0,0,0-.51,2.05,3.34,3.34,0,0,0,.46,1.35,3.54,3.54,0,0,0,.92,1l-2.9-2.23a3.57,3.57,0,0,1-.93-1,3.37,3.37,0,0,1-.45-1.35,3,3,0,0,1,.51-2.05,2.57,2.57,0,0,1,1.86-1.1,2.51,2.51,0,0,1,1.79.34l.11.08" transform="translate(-899.16 -495.53)"/></g></g></g><g class="cls-2"><g class="cls-22"><g class="cls-2"><path class="cls-6" d="M963.36,556.47l2.91,2.22c-.23-.15-.45-.31-.66-.47l-2.9-2.22.65.47" transform="translate(-899.16 -495.53)"/></g></g></g><polygon class="cls-6" points="74.06 53.3 76.97 55.52 73.73 57.26 70.83 55.04 74.06 53.3"/><g class="cls-2"><g class="cls-23"><g class="cls-2"><path class="cls-6" d="M970.27,543.65l2.9,2.22.46.4a8.61,8.61,0,0,1,2.49,4.78l-2.9-2.23a8.61,8.61,0,0,0-2.49-4.77,4.25,4.25,0,0,0-.46-.4" transform="translate(-899.16 -495.53)"/></g></g></g><polygon class="cls-3" points="69.28 64.28 72.18 66.5 67.11 63.16 64.21 60.94 69.28 64.28"/><g class="cls-2"><g class="cls-24"><g class="cls-2"><path class="cls-6" d="M969.1,560.27l2.9,2.23a7,7,0,0,0-.66-.47l-2.91-2.22c.24.15.46.31.67.46" transform="translate(-899.16 -495.53)"/></g></g></g><g class="cls-2"><g class="cls-25"><g class="cls-2"><path class="cls-6" d="M964.18,562.17l2.91,2.22a8.88,8.88,0,0,0,1.68,3.7,2.82,2.82,0,0,0,.44.41l-2.91-2.22a4.12,4.12,0,0,1-.43-.41,9,9,0,0,1-1.69-3.7" transform="translate(-899.16 -495.53)"/></g></g></g><g class="cls-2"><g class="cls-26"><g class="cls-2"><path class="cls-6" d="M971.38,556.26l2.9,2.22c.48.37.94.76,1.39,1.18a8.94,8.94,0,0,1,1.68,2.14,7.73,7.73,0,0,1,.9,3,7.52,7.52,0,0,1-.52,4,6.1,6.1,0,0,1-2.37,2.69,9.45,9.45,0,0,1-3.84,1.33,7,7,0,0,1-5.44-1.24l-2.9-2.22a7,7,0,0,0,5.43,1.24,9.55,9.55,0,0,0,3.85-1.33,6.08,6.08,0,0,0,2.37-2.7,7.49,7.49,0,0,0,.52-4,7.73,7.73,0,0,0-.9-3,8.73,8.73,0,0,0-1.69-2.14,17.18,17.18,0,0,0-1.38-1.18" transform="translate(-899.16 -495.53)"/></g></g></g><path class="cls-4" d="M965.56,542.64a5.87,5.87,0,0,1,5.17,1.41,8.61,8.61,0,0,1,2.49,4.77L970,550.57a11.86,11.86,0,0,0-.83-2.39,3.9,3.9,0,0,0-1.21-1.51,2.51,2.51,0,0,0-1.79-.34,2.57,2.57,0,0,0-1.86,1.1,3,3,0,0,0-.51,2.05,3.37,3.37,0,0,0,.45,1.35,3.88,3.88,0,0,0,1.2,1.19l5.26,3.75a17.1,17.1,0,0,1,2.06,1.67,8.73,8.73,0,0,1,1.69,2.14,7.73,7.73,0,0,1,.9,3,7.49,7.49,0,0,1-.52,4,6.08,6.08,0,0,1-2.37,2.7,9.55,9.55,0,0,1-3.85,1.33,7,7,0,0,1-5.56-1.34,8.47,8.47,0,0,1-2.9-5.21l4-1.85a9,9,0,0,0,1.69,3.7,2.91,2.91,0,0,0,2.76.93,2.76,2.76,0,0,0,2-1.07,3.12,3.12,0,0,0,.47-2.19,4.33,4.33,0,0,0-.75-2,6.71,6.71,0,0,0-1.9-1.69l-5.07-3.34a12.27,12.27,0,0,1-2.66-2.41,6.91,6.91,0,0,1-1.38-3.76,7.28,7.28,0,0,1,.46-3.77,6,6,0,0,1,2.19-2.6A8.66,8.66,0,0,1,965.56,542.64Z" transform="translate(-899.16 -495.53)"/></g><g class="cls-2"><g class="cls-2"><g class="cls-27"><g class="cls-2"><path class="cls-6" d="M985.46,544.21l2.9,2.23a2.47,2.47,0,0,0-1.8-.34,2.56,2.56,0,0,0-1.85,1.09,2.91,2.91,0,0,0-.51,2,3.19,3.19,0,0,0,.46,1.35,3.54,3.54,0,0,0,.92,1l-2.9-2.23a3.29,3.29,0,0,1-1.39-2.34,3,3,0,0,1,.52-2,2.53,2.53,0,0,1,1.85-1.09,2.47,2.47,0,0,1,1.8.33" transform="translate(-899.16 -495.53)"/></g></g></g><g class="cls-2"><g class="cls-28"><g class="cls-2"><path class="cls-6" d="M985.55,544.28l2.9,2.22-.09-.06-2.9-2.23.09.07" transform="translate(-899.16 -495.53)"/></g></g></g><g class="cls-2"><g class="cls-29"><g class="cls-2"><path class="cls-6" d="M980.87,554l2.91,2.23c-.24-.16-.47-.32-.69-.49l-2.9-2.23c.22.17.45.34.68.49" transform="translate(-899.16 -495.53)"/></g></g></g><g class="cls-2"><g class="cls-30"><g class="cls-2"><path class="cls-6" d="M987.78,541.19l2.91,2.23.45.39a8.61,8.61,0,0,1,2.49,4.78l-2.9-2.23a8.74,8.74,0,0,0-2.49-4.78,5.58,5.58,0,0,0-.46-.39" transform="translate(-899.16 -495.53)"/></g></g></g><polygon class="cls-6" points="91.57 50.83 94.48 53.06 91.25 54.8 88.34 52.58 91.57 50.83"/><polygon class="cls-3" points="86.79 61.82 89.69 64.04 84.62 60.7 81.72 58.48 86.79 61.82"/><g class="cls-2"><g class="cls-31"><g class="cls-2"><path class="cls-6" d="M986.61,557.81l2.9,2.22c-.2-.15-.42-.31-.66-.46l-2.91-2.22c.24.15.46.31.67.46" transform="translate(-899.16 -495.53)"/></g></g></g><g class="cls-2"><g class="cls-32"><g class="cls-2"><path class="cls-6" d="M981.68,559.71l2.91,2.22a9,9,0,0,0,1.69,3.7,2.63,2.63,0,0,0,.42.4l-2.9-2.22a3.19,3.19,0,0,1-.43-.4,9.27,9.27,0,0,1-1.69-3.7" transform="translate(-899.16 -495.53)"/></g></g></g><g class="cls-2"><g class="cls-33"><g class="cls-2"><path class="cls-6" d="M988.89,553.8l2.9,2.22c.48.37.94.76,1.39,1.18a9.2,9.2,0,0,1,1.68,2.14,7.73,7.73,0,0,1,.89,3,7.47,7.47,0,0,1-.51,4,6.08,6.08,0,0,1-2.37,2.7,9.45,9.45,0,0,1-3.84,1.33,7,7,0,0,1-5.44-1.24l-2.9-2.22a7,7,0,0,0,5.43,1.24,9.55,9.55,0,0,0,3.85-1.33,6.14,6.14,0,0,0,2.37-2.7,8.53,8.53,0,0,0-.39-7,9,9,0,0,0-1.68-2.15,17.06,17.06,0,0,0-1.38-1.17" transform="translate(-899.16 -495.53)"/></g></g></g><path class="cls-4" d="M983.07,540.18a5.9,5.9,0,0,1,5.17,1.4,8.74,8.74,0,0,1,2.49,4.78l-3.23,1.75a12.51,12.51,0,0,0-.83-2.39,4,4,0,0,0-1.21-1.51,2.47,2.47,0,0,0-1.8-.33,2.53,2.53,0,0,0-1.85,1.09,3,3,0,0,0-.52,2,3.55,3.55,0,0,0,.46,1.35,3.88,3.88,0,0,0,1.2,1.19l5.26,3.74a19.27,19.27,0,0,1,2.06,1.67,9,9,0,0,1,1.68,2.15,8.53,8.53,0,0,1,.39,7,6.14,6.14,0,0,1-2.37,2.7,9.55,9.55,0,0,1-3.85,1.33,7,7,0,0,1-5.56-1.34,8.47,8.47,0,0,1-2.9-5.21l4-1.85a9.27,9.27,0,0,0,1.69,3.7,2.93,2.93,0,0,0,2.77.93,2.78,2.78,0,0,0,2-1.07,3.12,3.12,0,0,0,.47-2.19,4.33,4.33,0,0,0-.75-2,6.71,6.71,0,0,0-1.9-1.69L980.87,554a11.56,11.56,0,0,1-2.66-2.4,7,7,0,0,1-1.39-3.76,7.27,7.27,0,0,1,.47-3.77,6,6,0,0,1,2.18-2.6A8.71,8.71,0,0,1,983.07,540.18Z" transform="translate(-899.16 -495.53)"/></g></svg>