<svg xmlns="http://www.w3.org/2000/svg" viewBox="0 0 170 169.97"><g id="Capa_4" data-name="Capa 4"><circle cx="102.5" cy="73.5" r="30.5"/><path d="M148,227.88,151,238a83.2,83.2,0,0,0,16.67-2.09l-11.18-36.71Z" transform="translate(-64 -68)"/><path d="M123.77,210.71l7.71,25.3a81.05,81.05,0,0,0,9.44,1.53l2.87-9.65-12.71-41.72Z" transform="translate(-64 -68)"/><path d="M145,237.86c.62,0,1.23.08,1.86.1l-1-3.14Z" transform="translate(-64 -68)"/><path d="M104.44,161,89.1,212.43a82.81,82.81,0,0,0,24.7,17.74l5.79-19.45Z" transform="translate(-64 -68)"/><path d="M117.55,231.58a82.22,82.22,0,0,0,9.39,3.27l-5.24-17.2Z" transform="translate(-64 -68)"/><path d="M149,68A85,85,0,0,0,85.29,209.23L104.4,145.1l17.26,56.68L131,170.3,145.86,219l10.63-35.65,15.67,51.48A85,85,0,0,0,149,68ZM79.5,171a6.5,6.5,0,1,1,6.5-6.5A6.5,6.5,0,0,1,79.5,171Zm7-43a6.5,6.5,0,1,1,6.5-6.5A6.5,6.5,0,0,1,86.5,128Zm29-29a6.5,6.5,0,1,1,6.5-6.5A6.5,6.5,0,0,1,115.5,99Zm44-21a6.5,6.5,0,1,1-6.5,6.5A6.5,6.5,0,0,1,159.5,78Zm28,139a6.5,6.5,0,1,1,6.5-6.5A6.5,6.5,0,0,1,187.5,217Zm-21-41A34.5,34.5,0,1,1,201,141.5,34.54,34.54,0,0,1,166.5,176Zm32-66a6.5,6.5,0,1,1,6.5-6.5A6.5,6.5,0,0,1,198.5,110Zm15,78a6.5,6.5,0,1,1,6.5-6.5A6.5,6.5,0,0,1,213.5,188Zm4-40a6.5,6.5,0,1,1,6.5-6.5A6.5,6.5,0,0,1,217.5,148Z" transform="translate(-64 -68)"/></g></svg>