<svg id="Capa_1" data-name="Capa 1" xmlns="http://www.w3.org/2000/svg" viewBox="0 0 170.15 170"><defs><style>.cls-1{fill:#f9f9ff;}</style></defs><circle class="cls-1" cx="102.47" cy="73.5" r="30.5"/><path class="cls-1" d="M84,159.88,87,170a82.84,82.84,0,0,0,16.67-2.09L92.49,131.2Z" transform="translate(-0.03 0)"/><path class="cls-1" d="M59.77,142.71,67.48,168a79.31,79.31,0,0,0,9.44,1.53l2.87-9.65L67.08,118.17Z" transform="translate(-0.03 0)"/><path class="cls-1" d="M81,169.86c.62,0,1.23.08,1.86.1l-1-3.14Z" transform="translate(-0.03 0)"/><path class="cls-1" d="M40.44,93,25.1,144.43a82.8,82.8,0,0,0,24.7,17.74l5.79-19.45Z" transform="translate(-0.03 0)"/><path class="cls-1" d="M53.55,163.58a82.13,82.13,0,0,0,9.39,3.27l-5.24-17.2Z" transform="translate(-0.03 0)"/><path class="cls-1" d="M85,0A85,85,0,0,0,21.29,141.23L40.4,77.1l17.26,56.68L67,102.3,81.86,151l10.63-35.65,15.67,51.48A85,85,0,0,0,85,0ZM15.5,103A6.5,6.5,0,1,1,22,96.5a6.5,6.5,0,0,1-6.5,6.5Zm7-43A6.5,6.5,0,1,1,29,53.5,6.5,6.5,0,0,1,22.5,60Zm29-29A6.5,6.5,0,1,1,58,24.5,6.5,6.5,0,0,1,51.5,31Zm44-21A6.5,6.5,0,1,1,89,16.5,6.5,6.5,0,0,1,95.5,10Zm28,139a6.5,6.5,0,1,1,6.5-6.5h0A6.5,6.5,0,0,1,123.5,149Zm-21-41A34.5,34.5,0,1,1,137,73.5,34.5,34.5,0,0,1,102.5,108Zm32-66a6.5,6.5,0,1,1,6.5-6.5,6.5,6.5,0,0,1-6.5,6.5Zm15,78a6.5,6.5,0,1,1,6.5-6.5,6.5,6.5,0,0,1-6.5,6.5Zm4-40a6.5,6.5,0,1,1,6.5-6.5,6.5,6.5,0,0,1-6.5,6.5Z" transform="translate(-0.03 0)"/></svg>