<svg id="Capa_1" data-name="Capa 1" xmlns="http://www.w3.org/2000/svg" xmlns:xlink="http://www.w3.org/1999/xlink" viewBox="0 0 459.25 295.78"><defs><style>.cls-1{fill:#9acccc;}.cls-2{fill:url(#Degradado_sin_nombre_7);}</style><linearGradient id="Degradado_sin_nombre_7" x1="732.75" y1="556.68" x2="959.25" y2="556.68" gradientUnits="userSpaceOnUse"><stop offset="0" stop-color="#f7eda9"/><stop offset="0.63" stop-color="#fcc1aa"/><stop offset="1" stop-color="#ffadaa"/></linearGradient></defs><path class="cls-1" d="M1140.56,388.19,957.4,523.9a19.91,19.91,0,0,1-12.22-1.54c-3.82-1.94-5.42-4.67-8.37-8,0,0-6.84-.42-14.86-11.23-11-14.86-94.69-27.47-130.62,31.52-28.4,46.64-9.5,109.38,37.07,136.17,47.33,27.22,107.46,10.4,134.32-37.58a100.75,100.75,0,0,0,9.59-74.62l207.14-88.46a49.83,49.83,0,0,0,7.56-54.79A48.52,48.52,0,0,0,1140.56,388.19Z" transform="translate(-732.75 -388.1)"/><path class="cls-2" d="M906.07,624.83c11.93-11,18.29-25.25,18.16-37.85a59.34,59.34,0,0,0,16.84-11c18.88-17.39,23.86-43,11.13-57.19-6-6.73-15-9.65-24.74-9a81,81,0,0,0-19.32-40.11c-33.32-37.16-94.94-35.39-137.64,3.94s-50.31,101.34-17,138.5a79.37,79.37,0,0,0,37.55,23.31c-1.54,9.78.47,19.09,6.51,25.83,12.73,14.19,38.35,11.61,57.23-5.78a60.08,60.08,0,0,0,12.37-16C879.53,640.87,894.14,635.81,906.07,624.83Z" transform="translate(-732.75 -388.1)"/></svg>