<svg id="Capa_1" data-name="Capa 1" xmlns="http://www.w3.org/2000/svg" xmlns:xlink="http://www.w3.org/1999/xlink" viewBox="0 0 343.25 221.07"><defs><style>.cls-1{fill:#9acccc;}.cls-2{fill:url(#Degradado_sin_nombre_7);}</style><linearGradient id="Degradado_sin_nombre_7" x1="790.75" y1="551.46" x2="960.04" y2="551.46" gradientUnits="userSpaceOnUse"><stop offset="0" stop-color="#f7eda9"/><stop offset="0.63" stop-color="#fcc1aa"/><stop offset="1" stop-color="#ffadaa"/></linearGradient></defs><path class="cls-1" d="M1095.55,425.52,958.66,527a14.88,14.88,0,0,1-9.14-1.14c-2.85-1.46-4-3.5-6.25-6,0,0-5.12-.31-11.11-8.39-8.23-11.1-70.77-20.53-97.62,23.56-21.24,34.86-7.1,81.75,27.7,101.77a73.11,73.11,0,0,0,100.39-28.08,75.31,75.31,0,0,0,7.17-55.78l154.82-66.11a37.25,37.25,0,0,0,5.65-41A36.29,36.29,0,0,0,1095.55,425.52Z" transform="translate(-790.75 -425.46)"/><path class="cls-2" d="M920.29,602.39c8.92-8.21,13.67-18.87,13.58-28.29a44.45,44.45,0,0,0,12.58-8.19c14.11-13,17.84-32.13,8.32-42.74-4.51-5-11.21-7.22-18.49-6.76a60.51,60.51,0,0,0-14.44-30c-24.9-27.77-71-26.46-102.88,2.94s-37.6,75.74-12.69,103.52a59.22,59.22,0,0,0,28.06,17.42c-1.14,7.31.35,14.27,4.87,19.31,9.51,10.61,28.66,8.67,42.77-4.33a45,45,0,0,0,9.25-11.91C900.46,614.38,911.38,610.6,920.29,602.39Z" transform="translate(-790.75 -425.46)"/></svg>