<svg id="Capa_6" data-name="Capa 6" xmlns="http://www.w3.org/2000/svg" viewBox="0 0 510.08 498.51"><defs><style>.cls-1{fill:#26a59a;}.cls-2{fill:#64d8cb;}.cls-3{fill:#01766d;}.cls-4{fill:#f2f2f2;}</style></defs><path class="cls-1" d="M13265.66,609.55c-4.63,0-16.67-.29-31-.56a216.2,216.2,0,0,1,55.7,144.91c0,88.08-52.51,163.75-127.85,197.87v81.14c12.87,2.45,89.53,0,103.11,0,116.91,0,211.69-94.77,211.69-211.68S13382.57,609.55,13265.66,609.55Z" transform="translate(-12967.26 -535.49)"/><path class="cls-2" d="M13234.7,609c-39.78-44.33-97.34-72.38-161.59-72.38-13.94,0-92.63-2.51-105.85,0V971.18c13.22,2.52,91.91,0,105.85,0a216.21,216.21,0,0,0,89.44-19.41V609.55C13171,607.94,13207.12,608.45,13234.7,609Z" transform="translate(-12967.26 -535.49)"/><path class="cls-3" d="M13290.4,754.42a216.22,216.22,0,0,0-55.7-144.91c-27.58-.54-63.67-1-72.15.56V952.29C13237.89,918.18,13290.4,842.51,13290.4,754.42Z" transform="translate(-12967.26 -535.49)"/><path class="cls-4" d="M13388.34,913.21a15.18,15.18,0,0,1,1.72,1.57C13389.9,914,13388.34,913.21,13388.34,913.21Z" transform="translate(-12967.26 -535.49)"/><path class="cls-4" d="M13408.22,864.17c0-9.62-29.49-38.47-31.09-48.08a12.43,12.43,0,0,1,.27-5.28,23.2,23.2,0,0,0,3.83.64,9.63,9.63,0,0,0,4.2-.38,5.85,5.85,0,0,0,2.81-3.07,4.91,4.91,0,0,0,.37-3.7,4.42,4.42,0,0,1-1.23,3.16c-.68.79-1.8,1.7-2.49,1.63-1.79,0-4.11-1.17-5.91-2.25l0,0c2.72-5.49,7.3-10.8,7.57-18,.49-13.14-13.9-50.67-30.62-68-5.14,9.4-12.8,22.81-16.76,33.6-2,5.43-5.67,22.23-10.22,43.42-10.14,47.19-24.59,116.15-34.31,129.73-5.62,7.86-12,13.32-17.59,18,39.2,18.61,96.22,23.92,102.22,20.67,12.27-6.65,5-23.64,6.23-30.7s6.41-7,7.69-12.5c.83-3.5-1.39-6.59-3.09-8.36.15.72-.74,1.51-4.6,2-8.33,1-35-10.4-33.08-11.36s33.68.07,35,.07,8.06-4.09,8.7-7.62-7.38-12.5-7.7-15.7S13408.22,873.78,13408.22,864.17Z" transform="translate(-12967.26 -535.49)"/><path class="cls-1" d="M13362.36,808.61a4.56,4.56,0,0,1-1.38,3.67c-.87,1-2.07,1.84-3,1.81-2.34,0-5.09-1-7.41-2.06l-.11,0a1.66,1.66,0,0,0-.21-.06c-.16-.37-.26-.58-.26-.58l-26.09,7.26,0,1.57,23.36,5.51s3.33-2.29,4.37-5.4a7.94,7.94,0,0,0,0-3.82,17.19,17.19,0,0,0,6.78-.29,6.42,6.42,0,0,0,3.44-3.29A5,5,0,0,0,13362.36,808.61Z" transform="translate(-12967.26 -535.49)"/><path class="cls-1" d="M13328.59,797.74s13.73-3.19,15.35-2.92c3.9.65,19.06,8,19.06,8s7.26-4.08,4-8.05-24.27-8.31-24.27-8.31l-13.3,6.35Z" transform="translate(-12967.26 -535.49)"/></svg>