<svg id="Capa_11" data-name="Capa 11" xmlns="http://www.w3.org/2000/svg" viewBox="0 0 266.97 89.51"><defs><style>.cls-1{font-size:18px;font-family:Montserrat-Regular, Montserrat;}.cls-2{letter-spacing:-0.01em;}.cls-3{letter-spacing:-0.02em;}.cls-4{letter-spacing:0em;}.cls-5{letter-spacing:-0.02em;}.cls-6{letter-spacing:0em;}.cls-7{letter-spacing:-0.01em;}.cls-8{letter-spacing:-0.02em;}.cls-9{letter-spacing:0em;}.cls-10{fill:#f7d58b;}.cls-11{fill:#fff;}.cls-12{fill:#1a1a1a;}.cls-13{fill:#8b6239;}.cls-14,.cls-15{fill:#6a8dc1;}.cls-14{stroke:#a57c52;stroke-linecap:round;stroke-linejoin:round;}</style></defs><text class="cls-1" transform="translate(0 84.8)"><tspan class="cls-2">L</tspan><tspan x="10.46" y="0">ogo </tspan><tspan class="cls-3" x="50.09" y="0">t</tspan><tspan class="cls-4" x="57.06" y="0">ook </tspan><tspan class="cls-5" x="95.17" y="0">y</tspan><tspan x="104.65" y="0">our </tspan><tspan class="cls-2" x="139.98" y="0">c</tspan><tspan class="cls-6" x="149.97" y="0">h</tspan><tspan class="cls-4" x="162.2" y="0">o</tspan><tspan class="cls-7" x="173.48" y="0">c</tspan><tspan x="183.45" y="0">ola</tspan><tspan class="cls-8" x="210.2" y="0">t</tspan><tspan class="cls-9" x="217.17" y="0">e</tspan></text><rect class="cls-10" x="3764.76" y="3420.33" width="63" height="63" rx="12" transform="translate(4018.65 3483.33) rotate(180)"/><circle cx="222.56" cy="32.38" r="15.22"/><circle class="cls-11" cx="230.79" cy="31.5" r="4.2"/><circle class="cls-12" cx="231.66" cy="32.38" r="2.28"/><circle class="cls-11" cx="215.74" cy="31.5" r="4.2"/><circle class="cls-12" cx="216.61" cy="32.38" r="2.28"/><rect class="cls-13" x="3808.37" y="3450.26" width="25.22" height="39.45" rx="3.06" transform="translate(1716.79 4997.46) rotate(-148.79)"/><line class="cls-14" x1="258.61" y1="37.66" x2="248.26" y2="54.75"/><line class="cls-14" x1="252.42" y1="33.9" x2="242.06" y2="50.99"/><line class="cls-14" x1="245.48" y1="34.1" x2="261.65" y2="43.9"/><line class="cls-14" x1="243.33" y1="37.65" x2="259.5" y2="47.45"/><rect class="cls-15" x="3801.64" y="3464.51" width="29.25" height="26.51" rx="3.08" transform="translate(1704.01 5009.45) rotate(-148.79)"/></svg>